<svg width="206" height="64" viewBox="0 0 206 64" xmlns="http://www.w3.org/2000/svg"><title>лого</title><g fill="#FFF" fill-rule="evenodd"><path d="M18.674 56.954c6.198 0 12.15 1.474 17.288 4.178l-1.467 2.213c-4.73-2.46-10.194-3.85-15.902-3.85-5.953 0-11.498 1.473-16.39 4.095L.814 61.378c5.3-2.868 11.336-4.424 17.86-4.424zM34.984 38.928H12.558l-9.54-35.56H.407l10.275 38.1 25.035.082-.653-2.458-.08-.164z"/><path d="M30.743 34.995H16.065l-6.28-23.27h-2.61l6.933 25.892h17.288l-.653-2.622z"/><path d="M26.503 30.98h-7.176l-2.61-9.75h-2.61l3.263 12.29h9.785l-.652-2.54zM74.727 63.074h-3.92l-6.255-17.937L70.807 27.2h3.92l-6.255 17.937 6.255 17.937zm-7.09 0l-6.254-17.937L67.638 27.2h-3.92l-6.255 17.937 6.255 17.937h3.92zm28.274 0h-7.005c-3.42-4.97-5.838-10.274-7.256-16.085-1.085-4.38-1.67-9.01-1.67-13.895 0-5.137.585-9.853 1.753-14.232 1.418-5.305 3.836-10.442 7.09-15.58h7.005c-3.92 4.296-6.84 9.18-8.59 14.485-1.585 4.716-2.42 9.853-2.42 15.495 0 5.81.835 11.032 2.42 15.663 1.834 4.97 4.67 9.685 8.673 14.148zm17.682-53.22h-5.505v53.22h-4.92V9.854h-5.505v-6.57h15.847v6.57h.082zm20.767 53.22h-4.922v-39.58L123.1 37.812V63.16h-4.92V3.2h4.92v22.484L134.36.168v62.906zm23.017 0h-4.92V13.558c-1.668 2.105-3.086 4.716-4.17 7.83-1.502 4.296-2.252 9.517-2.252 15.58v26.106h-4.92V36.968c0-3.452.25-6.484.666-9.263.752-5.052 2.17-9.6 4.338-13.894C148.87 8.338 152.54 3.96 157.294.675v62.4h.083zm25.688-8.085c0 2.694-.667 4.715-1.918 6.063-1.335 1.347-3.003 2.02-5.17 2.02h-9.01V50.612h-4.17l-2.834-6.147h7.09V3.283h4.92v41.18h5.754c1.335 0 2.502.42 3.336 1.18 1.418 1.346 2.17 3.452 2.17 6.315v3.03h-.168zm-4.837-.843v-1.263c0-1.01-.167-1.6-.584-1.852-.417-.253-.834-.42-1.335-.42h-4.504v5.893h4.42c.584 0 1-.084 1.168-.252.583-.337.834-1.01.834-2.106zm27.355-9.01l-6.255 17.937h-3.92l6.255-17.937-6.255-17.937h3.92l6.255 17.937zm-7.006 0L192.322 27.2h-3.92l6.255 17.937-6.255 17.937h3.92l6.255-17.937zm-177.864.182c-1.712 0-3.18 1.474-3.18 3.194 0 1.803 1.386 3.196 3.18 3.196 1.713 0 3.18-1.475 3.18-3.196 0-1.72-1.467-3.195-3.18-3.195zm0-2.705c3.262 0 5.87 2.622 5.87 5.9 0 3.277-2.608 5.9-5.87 5.9s-5.87-2.623-5.87-5.9c0-3.278 2.608-5.9 5.87-5.9z"/></g></svg>