<svg width="42" height="42" viewBox="0 0 42 42" xmlns="http://www.w3.org/2000/svg"><title>Shape + Shape Copy 2 + Oval 1</title><g fill="#FFF" fill-rule="evenodd"><path d="M21.93 8.027c1.438-.994 2.637-1.542 3.7-1.748.376-.07.718-.103 1.06-.103 1.234 0 2.296.445 3.324 1.13 0 0 1.61 1.062 2.193 1.782.548.752.514 1.403 0 1.917l-3.77 4.454s-.924 1.097-2.26.24c0 0-.582-.547-1.918-1.507-1.303-.96-2.674 1.302-2.674 1.302L19.154 19.4s-.617.926-1.336 2.022c-.446.65-.89 1.37-1.302 2.022-.89 1.815-.41 2.432-.41 2.432.273.65 2.054 1.2 2.877 1.747 1.3.857.65 2.16.65 2.16l-2.637 5.206c-.31.684-.857.993-1.782.753-.925-.206-2.5-1.302-2.5-1.302-.275-.17-.515-.342-.755-.547-1.988-1.37-3.153-3.29-2.262-7.572.994-4.418 4.728-10.07 4.728-10.07s3.734-5.62 7.503-8.223z"/><path d="M21 39.8c10.224 0 18.524-8.41 18.524-18.8S31.224 2.2 21 2.2 2.476 10.61 2.476 21 10.776 39.8 21 39.8zm0 2.2C9.555 42 .276 32.598.276 21S9.556 0 21 0c11.445 0 20.724 9.402 20.724 21S32.444 42 21 42z"/></g></svg>