<?xml version="1.0" encoding="UTF-8" standalone="no"?>
<svg width="79px" height="121px" viewBox="0 0 79 121" version="1.1" xmlns="http://www.w3.org/2000/svg" xmlns:xlink="http://www.w3.org/1999/xlink" xmlns:sketch="http://www.bohemiancoding.com/sketch/ns">
    <!-- Generator: Sketch 3.3 (11970) - http://www.bohemiancoding.com/sketch -->
    <title>accessories</title>
    <desc>Created with Sketch.</desc>
    <defs></defs>
    <g id="Page-1" stroke="none" stroke-width="1" fill="none" fill-rule="evenodd" sketch:type="MSPage">
        <g id="accessories" sketch:type="MSLayerGroup" transform="translate(1.000000, 1.000000)" stroke="#4A4A4A" stroke-width="1.4">
            <path d="M73.5110599,64.4626863 L73.5110599,0 L56,0 L56,46.1979672 C50.7495253,43.5139507 44.8015637,42 38.5,42 C17.2370371,42 0,59.2370371 0,80.5 C0,101.762963 17.2370371,119 38.5,119 C59.7629629,119 77,101.762963 77,80.5 C77,74.7766611 75.7511394,69.3450093 73.5110599,64.4626863 Z M38.5,119 C59.7629629,119 77,101.762963 77,80.5 C77,59.2370371 59.7629629,42 38.5,42 C17.2370371,42 0,59.2370371 0,80.5 C0,101.762963 17.2370371,119 38.5,119 Z M56,0 L73.5110599,0 L73.5110599,11.2 L56,11.2 L56,0 Z" id="Rectangle-18" sketch:type="MSShapeGroup"></path>
            <path d="M38.4449541,101.596711 C50.0125329,101.596711 59.3899083,92.1823192 59.3899083,80.5690789 C59.3899083,68.9558387 50.0125329,59.5414474 38.4449541,59.5414474 C26.8773754,59.5414474 17.5,68.9558387 17.5,80.5690789 C17.5,92.1823192 26.8773754,101.596711 38.4449541,101.596711 L38.4449541,101.596711 Z" id="Oval-58" sketch:type="MSShapeGroup"></path>
        </g>
    </g>
</svg>