<?xml version="1.0" encoding="UTF-8" standalone="no"?>
<svg width="79px" height="121px" viewBox="0 0 79 121" version="1.1" xmlns="http://www.w3.org/2000/svg" xmlns:xlink="http://www.w3.org/1999/xlink" xmlns:sketch="http://www.bohemiancoding.com/sketch/ns">
    <!-- Generator: Sketch 3.3 (11970) - http://www.bohemiancoding.com/sketch -->
    <title>1 иконка</title>
    <desc>Created with Sketch.</desc>
    <defs></defs>
    <g id="Иконки" stroke="none" stroke-width="1" fill="none" fill-rule="evenodd" sketch:type="MSPage">
        <g id="иконки-символы" sketch:type="MSArtboardGroup" transform="translate(-596.000000, -368.000000)">
            <g id="1-иконка" sketch:type="MSLayerGroup" transform="translate(597.000000, 369.000000)">
                <path d="M38.5,91.7 L38.5,119" id="Path-2" stroke="#4A4A4A" stroke-width="1.4" stroke-linecap="round" sketch:type="MSShapeGroup"></path>
                <path d="M45.5,98.7 L31.5,98.7" id="Path-98" stroke="#4A4A4A" stroke-width="1.4" stroke-linecap="round" sketch:type="MSShapeGroup"></path>
                <path d="M21,119 L21,115.5 L56,115.5 L56,119" id="Path-3" stroke="#4A4A4A" stroke-width="1.4" stroke-linecap="round" stroke-linejoin="round" sketch:type="MSShapeGroup"></path>
                <path d="M0.0624360001,88.8945312 C0.0640569147,90.0573495 1.01035261,91 2.18316938,91 L74.8822015,91 C76.0518293,91 76.9991184,90.0649143 76.9980149,88.8945312 L76.9557857,44.1054688 C76.9546893,42.9426505 76.0178547,42 74.8373893,42 L65.1353127,42 C63.9664511,42 63.0181241,42.9361168 63.0171479,44.1115697 L62.9840219,84 L13.9933774,84 L14.0863398,44.1115697 C14.0890576,42.945382 13.144616,42 11.9812177,42 L2.10711041,42 C0.941765723,42 -0.00162933147,42.9350857 2.12818281e-06,44.1054688 L0.0624360001,88.8945312 Z" id="Path-4" stroke="#4A4A4A" stroke-width="1.4" stroke-linejoin="round" sketch:type="MSShapeGroup"></path>
                <path d="M63,70 L62.9999991,84 L14,84 L14,70 L63,70 Z" id="Path-5" stroke="#4A4A4A" stroke-width="1.4" stroke-linejoin="round" sketch:type="MSShapeGroup"></path>
                <path d="M14.0256129,70 L62.9814006,70 L62.9755674,44.1045508 C62.9753056,42.9422395 63.9171386,42 65.0898177,42 L69.9602203,42 L69.999975,4.92076837 C70.0028888,2.20310304 67.8024374,-1.55755456e-15 65.0934501,-1.56154191e-15 L11.987038,-1.63970923e-15 C9.27432542,-1.64370207e-15 7.07129818,2.19896784 7.06642244,4.92076837 L7,42 L11.8774286,42 C13.0470435,42 13.9962328,42.9476543 13.9974893,44.1045508 L14.0256129,70 Z" id="Path-6" stroke="#4A4A4A" stroke-width="1.4" sketch:type="MSShapeGroup"></path>
                <circle id="Oval-1" fill="#4A4A4A" sketch:type="MSShapeGroup" cx="24.5" cy="14" r="1.4"></circle>
                <circle id="Oval-1-Copy" fill="#4A4A4A" sketch:type="MSShapeGroup" cx="52.5" cy="14" r="1.4"></circle>
                <circle id="Oval-1-Copy-2" fill="#4A4A4A" sketch:type="MSShapeGroup" cx="52.5" cy="52.5" r="1.4"></circle>
                <circle id="Oval-1-Copy-3" fill="#4A4A4A" sketch:type="MSShapeGroup" cx="24.5" cy="52.5" r="1.4"></circle>
            </g>
        </g>
    </g>
</svg>