<?xml version="1.0" encoding="UTF-8" standalone="no"?>
<svg width="93px" height="121px" viewBox="0 0 93 121" version="1.1" xmlns="http://www.w3.org/2000/svg" xmlns:xlink="http://www.w3.org/1999/xlink" xmlns:sketch="http://www.bohemiancoding.com/sketch/ns">
    <!-- Generator: Sketch 3.3 (11970) - http://www.bohemiancoding.com/sketch -->
    <title>11 иконка</title>
    <desc>Created with Sketch.</desc>
    <defs></defs>
    <g id="Иконки" stroke="none" stroke-width="1" fill="none" fill-rule="evenodd" sketch:type="MSPage">
        <g id="иконки-символы" sketch:type="MSArtboardGroup" transform="translate(-877.000000, -1002.000000)" stroke="#4A4A4A" stroke-width="1.4" stroke-linejoin="round">
            <g id="11-иконка" sketch:type="MSLayerGroup" transform="translate(878.000000, 1003.000000)">
                <path d="M66.4484598,11.1627906 C60.7935319,10.0038143 45.6126278,0.412957916 45.6126278,0.412957916 C45.6126278,0.412957916 29.78522,10.1493171 24.9268086,11.1627906 C20.0683972,12.176264 7.34041366,7.67441846 7.34041366,7.67441846 C7.34041366,7.67441846 14.3756144,34.8648965 14.4869114,49.5348856 C14.6023918,64.7562764 0.512436883,84.4186065 0.512436883,84.4186065 L10.4147987,108.837211 C10.4147987,108.837211 21.6364184,107.008928 27.7855714,108.837211 C33.3690278,110.4973 45.6126271,119.302327 45.6126271,119.302327 C45.6126271,119.302327 56.6347355,110.750183 62.9135205,108.837211 C68.0843243,107.261811 79.9613934,108.837211 79.9613934,108.837211 L91.3035769,84.4186065 C91.3035769,84.4186065 77.3784902,64.2533247 77.2547284,49.5348856 C77.1170873,33.1658325 82.7628054,7.67441846 82.7628054,7.67441846 C82.7628054,7.67441846 75.7036901,13.0596481 66.4484598,11.1627906 Z" id="Path-106" sketch:type="MSShapeGroup"></path>
            </g>
        </g>
    </g>
</svg>