<?xml version="1.0" encoding="UTF-8" standalone="no"?>
<svg width="213px" height="121px" viewBox="0 0 213 121" version="1.1" xmlns="http://www.w3.org/2000/svg" xmlns:xlink="http://www.w3.org/1999/xlink" xmlns:sketch="http://www.bohemiancoding.com/sketch/ns">
    <!-- Generator: Sketch 3.3 (11970) - http://www.bohemiancoding.com/sketch -->
    <title>9 иконка</title>
    <desc>Created with Sketch.</desc>
    <defs></defs>
    <g id="Иконки" stroke="none" stroke-width="1" fill="none" fill-rule="evenodd" sketch:type="MSPage">
        <g id="иконки-символы" sketch:type="MSArtboardGroup" transform="translate(-1097.000000, -792.000000)">
            <g id="9-иконка" sketch:type="MSLayerGroup" transform="translate(1098.000000, 793.000000)">
                <rect id="Rectangle-1" stroke="#4A4A4A" stroke-width="1.4" sketch:type="MSShapeGroup" x="7.00996678" y="70" width="196.27907" height="21"></rect>
                <rect id="Rectangle-2" stroke="#4A4A4A" stroke-width="1.4" sketch:type="MSShapeGroup" x="10.5149502" y="0" width="63.089701" height="70"></rect>
                <rect id="Rectangle-2-Copy" stroke="#4A4A4A" stroke-width="1.4" sketch:type="MSShapeGroup" x="73.6046512" y="0" width="63.089701" height="70"></rect>
                <rect id="Rectangle-2-Copy-2" stroke="#4A4A4A" stroke-width="1.4" sketch:type="MSShapeGroup" x="136.694352" y="0" width="63.089701" height="70"></rect>
                <path d="M0.0347802251,119 L0.0347802251,86.0975727 C0.0347802251,84.9391153 0.970440157,84 2.13517054,84 L6.97256061,84" id="Path-57" stroke="#4A4A4A" stroke-width="1.4" stroke-linecap="round" sketch:type="MSShapeGroup"></path>
                <path d="M203.343679,84 L208.229026,84 C209.385537,84 210.323074,84.9361654 210.323074,86.0975727 L210.323074,119" id="Path-58" stroke="#4A4A4A" stroke-width="1.4" stroke-linecap="round" sketch:type="MSShapeGroup"></path>
                <g id="Group" transform="translate(26.637874, 16.100000)" fill="#4A4A4A" sketch:type="MSShapeGroup">
                    <ellipse id="Oval-8" cx="1.40199336" cy="1.4" rx="1.40199336" ry="1.4"></ellipse>
                    <ellipse id="Oval-8-Copy-2" cx="1.40199336" cy="36.4" rx="1.40199336" ry="1.4"></ellipse>
                    <ellipse id="Oval-8-Copy-3" cx="29.4418605" cy="36.4" rx="1.40199336" ry="1.4"></ellipse>
                    <ellipse id="Oval-8-Copy-4" cx="127.581395" cy="36.4" rx="1.40199336" ry="1.4"></ellipse>
                    <ellipse id="Oval-8-Copy-9" cx="155.621262" cy="36.4" rx="1.40199336" ry="1.4"></ellipse>
                    <ellipse id="Oval-8-Copy-10" cx="155.621262" cy="1.4" rx="1.40199336" ry="1.4"></ellipse>
                    <ellipse id="Oval-8-Copy-11" cx="127.581395" cy="1.4" rx="1.40199336" ry="1.4"></ellipse>
                    <ellipse id="Oval-8-Copy-8" cx="92.5315615" cy="36.4" rx="1.40199336" ry="1.4"></ellipse>
                    <ellipse id="Oval-8-Copy-6" cx="92.5315615" cy="1.4" rx="1.40199336" ry="1.4"></ellipse>
                    <ellipse id="Oval-8-Copy-7" cx="64.4916944" cy="1.4" rx="1.40199336" ry="1.4"></ellipse>
                    <ellipse id="Oval-8-Copy-5" cx="64.4916944" cy="36.4" rx="1.40199336" ry="1.4"></ellipse>
                    <ellipse id="Oval-8-Copy" cx="29.4418605" cy="1.4" rx="1.40199336" ry="1.4"></ellipse>
                </g>
            </g>
        </g>
    </g>
</svg>