<?xml version="1.0" encoding="UTF-8" standalone="no"?>
<svg width="85px" height="122px" viewBox="0 0 85 122" version="1.1" xmlns="http://www.w3.org/2000/svg" xmlns:xlink="http://www.w3.org/1999/xlink" xmlns:sketch="http://www.bohemiancoding.com/sketch/ns">
    <!-- Generator: Sketch 3.3 (11970) - http://www.bohemiancoding.com/sketch -->
    <title>4 иконка</title>
    <desc>Created with Sketch.</desc>
    <defs></defs>
    <g id="Иконки" stroke="none" stroke-width="1" fill="none" fill-rule="evenodd" sketch:type="MSPage">
        <g id="иконки-символы" sketch:type="MSArtboardGroup" transform="translate(-600.000000, -582.000000)" stroke="#4A4A4A" stroke-width="1.4">
            <g id="4-иконка" sketch:type="MSLayerGroup" transform="translate(600.000000, 583.000000)">
                <path d="M42.5,120 L42.5,84.9122807" id="Path-22" stroke-linecap="round" sketch:type="MSShapeGroup"></path>
                <path d="M16.6957932,84.2105263 C15.5449037,84.2105263 14.6119235,83.2678512 14.6119235,82.124487 L14.6119235,72.261478 C14.6119235,71.1093902 15.5562464,70.1754386 16.6957932,70.1754386 L68.2821359,70.1754386 C69.4330254,70.1754386 70.3660056,71.1181137 70.3660056,72.261478 L70.3660056,82.124487 C70.3660056,83.2765747 69.4216827,84.2105263 68.2821359,84.2105263 L16.6957932,84.2105263 Z" id="Path-23" stroke-linejoin="round" sketch:type="MSShapeGroup"></path>
                <path d="M42.5,70.8771927 L42.5,63.8596491" id="Path-24" sketch:type="MSShapeGroup"></path>
                <path d="M18.2500249,61.0745077 C18.1868924,62.2251306 19.0660683,63.1578947 20.2305302,63.1578947 L64.7929966,63.1578929 C65.949932,63.1578928 66.8360637,62.2160714 66.7733389,61.0745058 L63.6847805,4.86408007 C63.537175,2.17772282 61.2281591,0 58.5387992,0 L26.4797836,0 C23.7853422,0 21.4817806,2.1740377 21.3341831,4.86408021 L18.2500249,61.0745077 Z" id="Path-25" stroke-linejoin="round" sketch:type="MSShapeGroup"></path>
                <path d="M13.558464,77.1755714 L7.65106377,77.1755714 L7.626471,42.1052632 L0.68664245,42.1052632" id="Path-26" stroke-linecap="round" stroke-linejoin="round" sketch:type="MSShapeGroup"></path>
                <path d="M84.3324312,77.1929825 L78.3759212,77.1929825 L78.3759212,42.1052632 L71.402476,42.1052632" id="Path-26-Copy" stroke-linecap="round" stroke-linejoin="round" sketch:type="MSShapeGroup" transform="translate(77.867454, 59.649123) scale(-1, 1) translate(-77.867454, -59.649123) "></path>
                <path d="M59.9387,119.298246 L59.9387,115.789474 L25.0825626,115.789474 L25.0825626,119.298246" id="Path-28" stroke-linecap="round" stroke-linejoin="round" sketch:type="MSShapeGroup"></path>
                <path d="M49.4882576,91.2280702 L35.5352692,91.2280702" id="Path-29" stroke-linecap="round" sketch:type="MSShapeGroup"></path>
            </g>
        </g>
    </g>
</svg>