<?xml version="1.0" encoding="UTF-8" standalone="no"?>
<svg width="213px" height="121px" viewBox="0 0 213 121" version="1.1" xmlns="http://www.w3.org/2000/svg" xmlns:xlink="http://www.w3.org/1999/xlink" xmlns:sketch="http://www.bohemiancoding.com/sketch/ns">
    <!-- Generator: Sketch 3.3 (11970) - http://www.bohemiancoding.com/sketch -->
    <title>5 иконка</title>
    <desc>Created with Sketch.</desc>
    <defs></defs>
    <g id="Иконки" stroke="none" stroke-width="1" fill="none" fill-rule="evenodd" sketch:type="MSPage">
        <g id="иконки-символы" sketch:type="MSArtboardGroup" transform="translate(-816.000000, -582.000000)">
            <g id="5-иконка" sketch:type="MSLayerGroup" transform="translate(817.000000, 582.000000)">
                <path d="M105.850498,36.9767442 C106.624798,36.9767442 107.252492,36.3520252 107.252492,35.5813953 C107.252492,34.8107655 106.624798,34.1860465 105.850498,34.1860465 C105.076199,34.1860465 104.448505,34.8107655 104.448505,35.5813953 C104.448505,36.3520252 105.076199,36.9767442 105.850498,36.9767442 Z" id="Oval-1-Copy-4" fill="#4A4A4A" sketch:type="MSShapeGroup"></path>
                <path d="M151.415282,36.9767442 C152.189582,36.9767442 152.817276,36.3520252 152.817276,35.5813953 C152.817276,34.8107655 152.189582,34.1860465 151.415282,34.1860465 C150.640983,34.1860465 150.013289,34.8107655 150.013289,35.5813953 C150.013289,36.3520252 150.640983,36.9767442 151.415282,36.9767442 Z" id="Oval-1-Copy-6" fill="#4A4A4A" sketch:type="MSShapeGroup"></path>
                <path d="M60.2857143,36.9767442 C61.0600138,36.9767442 61.6877076,36.3520252 61.6877076,35.5813953 C61.6877076,34.8107655 61.0600138,34.1860465 60.2857143,34.1860465 C59.5114147,34.1860465 58.8837209,34.8107655 58.8837209,35.5813953 C58.8837209,36.3520252 59.5114147,36.9767442 60.2857143,36.9767442 Z" id="Oval-1-Copy-5" fill="#4A4A4A" sketch:type="MSShapeGroup"></path>
                <path d="M35.735623,119.330864 L35.735623,105.348837 L28.7692379,105.348837 L28.7692379,119.330864 L35.735623,119.330864 Z" id="Path-31" stroke="#4A4A4A" stroke-width="1.4" stroke-linejoin="round" sketch:type="MSShapeGroup"></path>
                <path d="M0.69581964,44.6472984 C0.69581964,43.4934878 1.62622718,42.5581395 2.78833014,42.5581395 L19.6251658,42.5581395 C20.7808274,42.5581395 21.7192035,43.489125 21.7211049,44.6482497 L21.7627987,70.065631 L21.7627987,84.4186045 L190.01864,84.4186045 L190.01864,44.6483284 C190.01864,43.493949 190.947026,42.5581395 192.106604,42.5581395 L208.906859,42.5581395 C210.06001,42.5581395 210.994823,43.4944853 210.994823,44.6472984 L210.994823,103.259678 C210.994823,104.413489 210.05722,105.348837 208.91342,105.348837 L2.77722275,105.348837 C1.62769555,105.348837 0.69581964,104.412491 0.69581964,103.259678 L0.69581964,44.6472984 Z" id="Path-30" stroke="#4A4A4A" stroke-width="1.4" stroke-linejoin="round" sketch:type="MSShapeGroup"></path>
                <path d="M182.960133,119.302326 L182.960133,105.348837 L175.972174,105.348837 L175.972174,119.302325 L182.960133,119.302326 Z" id="Path-31-Copy" stroke="#4A4A4A" stroke-width="1.4" stroke-linejoin="round" sketch:type="MSShapeGroup"></path>
                <path d="M21.7489663,84.418605 L21.7489663,70.4651163 L189.978503,70.4651163 L189.978503,84.418605 L21.7489663,84.418605 Z" id="Path-33" stroke="#4A4A4A" stroke-width="1.4" sketch:type="MSShapeGroup"></path>
                <path d="M11.2130989,42.5581393 L11.2130989,5.56099422 C11.2130989,2.87505686 13.3879345,0.697674409 16.082454,0.697674409 L195.634881,0.697674409 C198.324152,0.697674409 200.504236,2.87471021 200.504236,5.56099422 L200.504236,42.5581393 L192.054334,42.5581393 C190.905327,42.5581393 189.973873,43.4866544 189.973873,44.6442853 L189.973873,70.4651163 L21.7724096,70.4651163 L21.7201447,44.6442856 C21.7178126,43.4921389 20.7838666,42.5581395 19.6283449,42.5581395 L11.2130989,42.5581393 Z" id="Path-34" stroke="#4A4A4A" stroke-width="1.4" stroke-linejoin="round" sketch:type="MSShapeGroup"></path>
            </g>
        </g>
    </g>
</svg>