<?xml version="1.0" encoding="UTF-8" standalone="no"?>
<svg width="73px" height="121px" viewBox="0 0 73 121" version="1.1" xmlns="http://www.w3.org/2000/svg" xmlns:xlink="http://www.w3.org/1999/xlink" xmlns:sketch="http://www.bohemiancoding.com/sketch/ns">
    <!-- Generator: Sketch 3.3 (11970) - http://www.bohemiancoding.com/sketch -->
    <title>6 иконка</title>
    <desc>Created with Sketch.</desc>
    <defs></defs>
    <g id="Иконки" stroke="none" stroke-width="1" fill="none" fill-rule="evenodd" sketch:type="MSPage">
        <g id="иконки-символы" sketch:type="MSArtboardGroup" transform="translate(-1166.000000, -582.000000)" stroke="#4A4A4A" stroke-width="1.4">
            <g id="6-иконка" sketch:type="MSLayerGroup" transform="translate(1167.000000, 583.000000)">
                <path d="M2.78599486,84 C1.62407033,84 0.682144391,83.0596816 0.682144391,81.9040585 L0.682144391,72.0959415 C0.682144391,70.938385 1.62272745,70 2.78599486,70 L68.8753236,70 C70.0372482,70 70.9791741,70.9403184 70.9791741,72.0959415 L70.9791741,81.9040585 C70.9791741,83.061615 70.038591,84 68.8753236,84 L2.78599486,84 Z" id="Path-39" sketch:type="MSShapeGroup"></path>
                <path d="M2.84073727,21 C1.67939064,21 0.737933176,20.056877 0.737933176,18.9096651 L0.737933176,4.89706381 C0.737933176,2.19249015 2.93724414,0 5.6367617,0 L66.1011715,0 C68.8067198,0 71,2.18793894 71,4.89706381 L71,18.9096651 C71,20.0641252 70.0598848,21 68.8971959,21 L2.84073727,21 Z" id="Path-39-Copy" sketch:type="MSShapeGroup"></path>
                <path d="M-13.3442949,49.0203746 L-13.3442949,41.9796234 C-13.3442949,41.9796234 35.8636289,42.1078559 35.8636279,42.1078559 C35.863627,42.1078559 35.8636279,49.0203746 35.8636279,49.0203746 L-13.3442949,49.0203746 Z" id="Path-39-Copy-2" sketch:type="MSShapeGroup" transform="translate(11.259667, 45.499999) rotate(-90.000000) translate(-11.259667, -45.499999) "></path>
                <path d="M35.8514852,49 L35.8514852,42 L85.0594059,42 C85.059405,42 85.0594059,49 85.0594059,49 L35.8514852,49 Z" id="Path-39-Copy-3" sketch:type="MSShapeGroup" transform="translate(60.455446, 45.500000) rotate(-90.000000) translate(-60.455446, -45.500000) "></path>
                <path d="M11.2475248,49 L11.2475248,42 L60.4554455,42 C60.4554446,42 60.4554455,49 60.4554455,49 L11.2475248,49 Z" id="Path-39-Copy-4" sketch:type="MSShapeGroup" transform="translate(35.851485, 45.500000) rotate(-90.000000) translate(-35.851485, -45.500000) "></path>
                <path d="M4.24142697,119 L7.74964578,84" id="Path-40" stroke-linecap="round" sketch:type="MSShapeGroup"></path>
                <path d="M67.4945211,119 L63.9942963,84" id="Path-41" stroke-linecap="round" sketch:type="MSShapeGroup"></path>
            </g>
        </g>
    </g>
</svg>