<svg width="79" height="121" viewBox="0 0 79 121" xmlns="http://www.w3.org/2000/svg"><title>accessories</title><g transform="translate(1 1)" stroke="#4A4A4A" stroke-width="1.4" fill="none" fill-rule="evenodd"><path d="M73.51 64.463V0H56v46.198C50.75 43.514 44.802 42 38.5 42 17.237 42 0 59.237 0 80.5S17.237 119 38.5 119 77 101.763 77 80.5c0-5.723-1.25-11.155-3.49-16.037zM38.5 119C59.763 119 77 101.763 77 80.5S59.763 42 38.5 42 0 59.237 0 80.5 17.237 119 38.5 119zM56 0h17.51v11.2H56V0z"/><path d="M38.445 101.597c11.568 0 20.945-9.415 20.945-21.028 0-11.614-9.377-21.03-20.945-21.03S17.5 68.957 17.5 80.57c0 11.612 9.377 21.027 20.945 21.027z"/></g></svg>