<svg width="79" height="121" viewBox="0 0 79 121" xmlns="http://www.w3.org/2000/svg"><title>1 иконка</title><g transform="translate(1 1)" fill="none" fill-rule="evenodd"><path d="M38.5 91.7V119M45.5 98.7h-14" stroke="#4A4A4A" stroke-width="1.4" stroke-linecap="round"/><path d="M21 119v-3.5h35v3.5" stroke="#4A4A4A" stroke-width="1.4" stroke-linecap="round" stroke-linejoin="round"/><path d="M.062 88.895C.064 90.057 1.01 91 2.182 91h72.7c1.17 0 2.117-.935 2.116-2.105l-.042-44.79c0-1.162-.938-2.105-2.12-2.105h-9.7c-1.17 0-2.118.936-2.12 2.112L62.985 84h-48.99l.092-39.888C14.09 42.945 13.146 42 11.98 42H2.108C.942 42-.003 42.935 0 44.105l.062 44.79z" stroke="#4A4A4A" stroke-width="1.4" stroke-linejoin="round"/><path d="M63 70v14H14V70h49z" stroke="#4A4A4A" stroke-width="1.4" stroke-linejoin="round"/><path d="M14.026 70H62.98l-.004-25.895c0-1.163.94-2.105 2.114-2.105h4.87L70 4.92C70.003 2.204 67.802 0 65.093 0H11.987C9.274 0 7.07 2.2 7.067 4.92L7 42h4.877c1.17 0 2.12.948 2.12 2.105L14.027 70z" stroke="#4A4A4A" stroke-width="1.4"/><circle fill="#4A4A4A" cx="24.5" cy="14" r="1.4"/><circle fill="#4A4A4A" cx="52.5" cy="14" r="1.4"/><circle fill="#4A4A4A" cx="52.5" cy="52.5" r="1.4"/><circle fill="#4A4A4A" cx="24.5" cy="52.5" r="1.4"/></g></svg>