<svg width="212" height="121" viewBox="0 0 212 121" xmlns="http://www.w3.org/2000/svg"><title>8 иконка</title><g transform="translate(1)" stroke="#4A4A4A" stroke-width="1.385" fill="none" fill-rule="evenodd"><path d="M70.01 84.63L70 72.72c0-1.148-.94-2.078-2.077-2.078H7.05V84.63h62.96z" stroke-linejoin="round"/><path d="M.054.7h10.493c1.916 0 3.623 1.542 3.814 3.444l6.67 66.498H7.07L.055.7z" stroke-linejoin="round"/><path d="M7.04 119.6V84.63M70.018 119.6l-.012-34.97" stroke-linecap="round"/><g transform="matrix(-1 0 0 1 210 0)"><path d="M70.01 84.63L70 72.72c0-1.148-.94-2.078-2.077-2.078H7.05V84.63h62.96z"/><path d="M.054.7h10.493c1.916 0 3.624 1.542 3.815 3.444l6.687 66.498H7.04L.055.7z" stroke-linejoin="round"/><path d="M7.04 119.6V84.63M70.018 119.6l-.012-34.97" stroke-linecap="round"/></g><path d="M122.528 119.6l-34.99.006M104.974 119.345l.047-62.692" stroke-linecap="round"/><path d="M56.062 49.66c-1.91 0-3.46 1.55-3.46 3.455v3.538l104.855-.042v-3.496c0-1.908-1.543-3.455-3.46-3.455H56.063z" stroke-linejoin="round"/></g></svg>