<svg width="128" height="120" viewBox="0 0 128 120" xmlns="http://www.w3.org/2000/svg"><title>10 иконка copy</title><g stroke="#4A4A4A" stroke-width="1.4" fill="none" fill-rule="evenodd"><g transform="translate(44.906 .698)"><path d="M0 17.43L10.525 0 21.05 17.556v101.05H0V17.428z" stroke-linejoin="round"/><path d="M20.897 17.442H.257h20.64z"/><path d="M14.71 6.977L10.586 0 6.397 6.977h8.314z" stroke-linecap="round" stroke-linejoin="round"/></g><g stroke-linejoin="round"><path d="M0 0h22.453v120H0z"/><path d="M21.75 11.218h-7.015M21.586 21.628h-6.8M21.535 32.093h-6.8M21.535 42.558h-6.8M21.535 53.023h-6.8M21.535 63.488h-6.8M21.535 73.953h-6.8M21.535 84.42h-6.8M21.535 94.884h-6.8M21.535 105.35h-6.8" stroke-linecap="round"/></g><g transform="translate(82.094 .698)"><path d="M16.195 32.834l-.762-.08-8.386 79.793 4.884.513 8.244-78.422c.734.16 1.496.246 2.28.246.782 0 1.544-.085 2.278-.246l8.243 78.422 4.884-.513-8.387-79.793-.762.08c2.59-1.907 4.268-4.966 4.268-8.415 0-5.78-4.712-10.467-10.525-10.467-5.813 0-10.525 4.686-10.525 10.466 0 3.448 1.678 6.507 4.267 8.414z" stroke-linejoin="round"/><path d="M9.547 112.966l-.496 5.63" stroke-linecap="round"/><path d="M42.45 84.42c1.357 0 2.456-1.095 2.456-2.443 0-1.35-1.1-2.442-2.456-2.442-1.356 0-2.456 1.093-2.456 2.442 0 1.348 1.1 2.442 2.456 2.442z"/><ellipse cx="2.456" cy="81.977" rx="2.456" ry="2.442"/><path d="M35.29 112.975l.495 5.63" stroke-linecap="round"/><path d="M22.453 10.465v3.488"/><path stroke-linejoin="round" d="M18.945 0h7.017v10.465h-7.017zM34.972 82.37h4.7M14.996 82.33h14.678M4.915 82.315H9.96"/><ellipse cx="22.453" cy="24.419" rx="10.525" ry="10.465"/></g></g></svg>