<svg width="93" height="121" viewBox="0 0 93 121" xmlns="http://www.w3.org/2000/svg"><title>11 иконка</title><path d="M67.448 12.163c-5.654-1.16-20.835-10.75-20.835-10.75s-15.828 9.736-20.686 10.75c-4.86 1.013-17.587-3.49-17.587-3.49s7.036 27.192 7.147 41.862C15.602 65.755 1.512 85.42 1.512 85.42l9.903 24.417s11.22-1.828 17.37 0c5.584 1.66 17.828 10.465 17.828 10.465s11.022-8.552 17.3-10.465c5.17-1.575 17.048 0 17.048 0L92.305 85.42s-13.926-20.167-14.05-34.885c-.137-16.37 5.51-41.86 5.51-41.86s-7.06 5.385-16.316 3.488z" stroke="#4A4A4A" stroke-width="1.4" stroke-linejoin="round" fill="none" fill-rule="evenodd"/></svg>