<svg width="213" height="121" viewBox="0 0 213 121" xmlns="http://www.w3.org/2000/svg"><title>9 иконка</title><g transform="translate(1 1)" fill="none" fill-rule="evenodd"><path stroke="#4A4A4A" stroke-width="1.4" d="M7.01 70h196.28v21H7.01zM10.515 0h63.09v70h-63.09z"/><path stroke="#4A4A4A" stroke-width="1.4" d="M73.605 0h63.09v70h-63.09z"/><path stroke="#4A4A4A" stroke-width="1.4" d="M136.694 0h63.09v70h-63.09z"/><path d="M.035 119V86.098c0-1.16.935-2.098 2.1-2.098h4.838M203.344 84h4.885c1.156 0 2.093.936 2.093 2.098V119" stroke="#4A4A4A" stroke-width="1.4" stroke-linecap="round"/><g transform="translate(26.638 16.1)" fill="#4A4A4A"><ellipse cx="1.402" cy="1.4" rx="1.402" ry="1.4"/><ellipse cx="1.402" cy="36.4" rx="1.402" ry="1.4"/><ellipse cx="29.442" cy="36.4" rx="1.402" ry="1.4"/><ellipse cx="127.581" cy="36.4" rx="1.402" ry="1.4"/><ellipse cx="155.621" cy="36.4" rx="1.402" ry="1.4"/><ellipse cx="155.621" cy="1.4" rx="1.402" ry="1.4"/><ellipse cx="127.581" cy="1.4" rx="1.402" ry="1.4"/><ellipse cx="92.532" cy="36.4" rx="1.402" ry="1.4"/><ellipse cx="92.532" cy="1.4" rx="1.402" ry="1.4"/><ellipse cx="64.492" cy="1.4" rx="1.402" ry="1.4"/><ellipse cx="64.492" cy="36.4" rx="1.402" ry="1.4"/><ellipse cx="29.442" cy="1.4" rx="1.402" ry="1.4"/></g></g></svg>