<svg width="85" height="122" viewBox="0 0 85 122" xmlns="http://www.w3.org/2000/svg"><title>4 иконка</title><g transform="translate(0 1)" stroke="#4A4A4A" stroke-width="1.4" fill="none" fill-rule="evenodd"><path d="M42.5 120V84.912" stroke-linecap="round"/><path d="M16.696 84.21c-1.15 0-2.084-.942-2.084-2.086V72.26c0-1.15.944-2.085 2.084-2.085h51.586c1.15 0 2.084.943 2.084 2.086v9.864c0 1.153-.944 2.087-2.084 2.087H16.696z" stroke-linejoin="round"/><path d="M42.5 70.877V63.86"/><path d="M18.25 61.075c-.063 1.15.816 2.083 1.98 2.083h44.563c1.157 0 2.043-.942 1.98-2.083l-3.088-56.21C63.537 2.177 61.228 0 58.54 0H26.48c-2.695 0-4.998 2.174-5.146 4.864l-3.084 56.21z" stroke-linejoin="round"/><path d="M13.558 77.176H7.65l-.024-35.07H.686M71.402 77.193h5.957V42.105h6.972M59.94 119.298v-3.51H25.082v3.51" stroke-linecap="round" stroke-linejoin="round"/><path d="M49.488 91.228H35.535" stroke-linecap="round"/></g></svg>