<svg width="213" height="121" viewBox="0 0 213 121" xmlns="http://www.w3.org/2000/svg"><title>5 иконка</title><g transform="translate(1)" fill="none" fill-rule="evenodd"><path d="M105.85 36.977c.775 0 1.402-.625 1.402-1.396 0-.77-.627-1.394-1.402-1.394-.774 0-1.4.625-1.4 1.395 0 .772.626 1.397 1.4 1.397zM151.415 36.977c.775 0 1.402-.625 1.402-1.396 0-.77-.627-1.394-1.402-1.394-.774 0-1.402.625-1.402 1.395 0 .772.628 1.397 1.402 1.397zM60.286 36.977c.774 0 1.402-.625 1.402-1.396 0-.77-.628-1.394-1.402-1.394-.775 0-1.402.625-1.402 1.395 0 .772.627 1.397 1.402 1.397z" fill="#4A4A4A"/><path d="M35.736 119.33v-13.98H28.77v13.98h6.966zM.696 44.647c0-1.154.93-2.09 2.092-2.09h16.837c1.156 0 2.094.932 2.096 2.09l.043 25.42v14.352H190.02V44.647c0-1.154.927-2.09 2.087-2.09h16.8c1.153 0 2.088.936 2.088 2.09v58.612c0 1.153-.938 2.09-2.082 2.09H2.777c-1.15 0-2.08-.938-2.08-2.09V44.647zM182.96 119.302V105.35h-6.988V119.3h6.988z" stroke="#4A4A4A" stroke-width="1.4" stroke-linejoin="round"/><path d="M21.75 84.42V70.464h168.23V84.42H21.75z" stroke="#4A4A4A" stroke-width="1.4"/><path d="M11.213 42.558V5.56c0-2.685 2.175-4.862 4.87-4.862h179.552c2.69 0 4.87 2.177 4.87 4.863V42.56h-8.45c-1.15 0-2.08.93-2.08 2.086v25.82H21.77l-.052-25.82c-.002-1.152-.936-2.086-2.092-2.086h-8.415z" stroke="#4A4A4A" stroke-width="1.4" stroke-linejoin="round"/></g></svg>