<svg width="219" height="122" viewBox="0 0 219 122" xmlns="http://www.w3.org/2000/svg"><title>3 иконка</title><g transform="translate(1 1)" fill="none" fill-rule="evenodd"><path d="M0 119.704h6.974L7 42.25H2.118c-1.156 0-2.093.936-2.093 2.09L0 119.704z" stroke="#4A4A4A" stroke-width="1.4" stroke-linecap="round" stroke-linejoin="round"/><path d="M70.018 119.704H77l-.014-77.455H70l.018 77.454zM140 119.704h7.007l-.016-77.393H140v77.394zM210.006 119.704H217l-.01-75.364c0-1.155-.942-2.09-2.078-2.09H210l.006 77.454z" stroke="#4A4A4A" stroke-width="1.4" stroke-linejoin="round"/><path d="M69.965 70.414l.043 14.083H7.01L7 70.414h62.965z" stroke="#4A4A4A" stroke-width="1.4"/><path d="M140 70.414l-.015 14.083H77V70.414h63z" stroke="#4A4A4A" stroke-width="1.4" stroke-linejoin="round"/><path d="M210 70.414v14.15h-62.92v-14.15H210zM7 91.538h62.992l-.02-7.04H7.012L7 91.537zM77.005 91.538h62.983l.012-7.04H77l.005 7.04z" stroke="#4A4A4A" stroke-width="1.4"/><path d="M147.008 91.538h62.97l.022-7.04h-62.987l-.005 7.04z" stroke="#4A4A4A" stroke-width="1.4"/><path d="M7 4.868C7 2.178 9.187 0 11.865 0h53.27C67.822 0 70 2.185 70 4.868l-.01 65.546H7.003L7 4.868zM77.002 4.868c0-2.69 2.185-4.868 4.863-4.868h53.27C137.822 0 140 2.185 140 4.868l-.01 65.546H77.025l-.023-65.546zM147 4.854C147 2.174 149.188 0 151.866 0h53.27C207.822 0 210 2.185 210 4.868l-.01 65.546h-62.945c-.033 0-.044-65.56-.044-65.56z" stroke="#4A4A4A" stroke-width="1.4" stroke-linejoin="round"/><ellipse fill="#4A4A4A" cx="38.5" cy="17.604" rx="1.4" ry="1.408"/><ellipse fill="#4A4A4A" cx="108.5" cy="17.604" rx="1.4" ry="1.408"/><ellipse fill="#4A4A4A" cx="108.5" cy="52.811" rx="1.4" ry="1.408"/><ellipse fill="#4A4A4A" cx="178.5" cy="52.811" rx="1.4" ry="1.408"/><ellipse fill="#4A4A4A" cx="178.5" cy="14.083" rx="1.4" ry="1.408"/><ellipse fill="#4A4A4A" cx="38.5" cy="52.811" rx="1.4" ry="1.408"/></g></svg>