<svg width="73" height="121" viewBox="0 0 73 121" xmlns="http://www.w3.org/2000/svg"><title>7 иконка</title><g transform="translate(1 1)" fill="none" fill-rule="evenodd"><path d="M2.767 84c-1.15 0-2.085-.94-2.085-2.08v-7.063c0-2.682 2.18-4.857 4.86-4.857H66.12c2.683 0 4.86 2.172 4.86 4.857v7.062c0 1.148-.94 2.08-2.086 2.08H2.767zM11.928 69.996c-.385 0-.682-.313-.663-.693l3.193-64.45C14.59 2.173 16.878 0 19.56 0h32.483c2.685 0 4.977 2.172 5.12 4.853l3.408 64.454c.022.383-.277.693-.66.693l-47.982-.004z" stroke="#4A4A4A" stroke-width="1.388"/><path d="M4.24 119l3.51-35M67.495 119l-3.5-35" stroke="#4A4A4A" stroke-width="1.388" stroke-linecap="round"/><ellipse fill="#4A4A4A" cx="35.851" cy="14" rx="1.406" ry="1.4"/><ellipse fill="#4A4A4A" cx="35.851" cy="56" rx="1.406" ry="1.4"/><ellipse fill="#4A4A4A" cx="35.851" cy="35" rx="1.406" ry="1.4"/></g></svg>