<svg width="73" height="121" viewBox="0 0 73 121" xmlns="http://www.w3.org/2000/svg"><title>6 иконка</title><g transform="translate(1 1)" stroke="#4A4A4A" stroke-width="1.4" fill="none" fill-rule="evenodd"><path d="M2.786 84c-1.162 0-2.104-.94-2.104-2.096v-9.808c0-1.158.94-2.096 2.104-2.096h66.09c1.16 0 2.103.94 2.103 2.096v9.808c0 1.158-.94 2.096-2.105 2.096H2.785zM2.84 21C1.68 21 .74 20.057.74 18.91V4.897C.738 2.192 2.938 0 5.638 0H66.1C68.808 0 71 2.188 71 4.897V18.91c0 1.154-.94 2.09-2.103 2.09H2.84z"/><path d="M14.78 70.104H7.74l.128-49.208h6.912v49.208zM63.955 70.104h-7V20.896h7v49.208zM39.35 70.104h-7V20.896h7v49.208z"/><path d="M4.24 119l3.51-35M67.495 119l-3.5-35" stroke-linecap="round"/></g></svg>