<?xml version="1.0" encoding="UTF-8" standalone="no"?>
<svg width="71px" height="82px" viewBox="0 0 71 82" version="1.1" xmlns="http://www.w3.org/2000/svg" xmlns:xlink="http://www.w3.org/1999/xlink" xmlns:sketch="http://www.bohemiancoding.com/sketch/ns">
    <!-- Generator: Sketch 3.3 (11970) - http://www.bohemiancoding.com/sketch -->
    <title>gerb</title>
    <desc>Created with Sketch.</desc>
    <defs></defs>
    <g id="Index" stroke="none" stroke-width="1" fill="none" fill-rule="evenodd" sketch:type="MSPage">
        <g id="Desktop-Index-1170" sketch:type="MSArtboardGroup" transform="translate(-55.000000, -17.000000)" fill="#5D5D5D">
            <g id="header" sketch:type="MSLayerGroup" transform="translate(0.000000, -13.000000)">
                <g id="SPBGU-logo" sketch:type="MSShapeGroup">
                    <g id="norm">
                        <g id="gerb" transform="translate(55.692308, 30.630769)">
                            <path d="M34.9337783,10.2230392 C36.0692789,10.2230392 36.3862823,9.4679606 36.7529782,7.78320555 C37.1173893,6.10581988 37.5589094,4.6001976 36.4365459,3.7923995 C36.1635231,3.62233674 35.8568009,3.49762405 35.5272316,3.4284652 C36.1149731,3.17733919 36.5307902,2.56794764 36.5307902,1.85255031 C36.5307902,0.913237009 35.8145338,0.15192273 34.9337783,0.15192273 C34.0530228,0.15192273 33.3367664,0.913237009 33.3367664,1.85255031 C33.3367664,2.56794764 33.7531547,3.17733919 34.340325,3.4284652 C34.0107557,3.49762405 33.7040334,3.62233674 33.4315818,3.7923995 C32.3086472,4.6001976 32.7507384,6.10581988 33.1151496,7.78320555 C33.4812743,9.4679606 33.7982777,10.2230392 34.9337783,10.2230392" id="Fill-1"></path>
                            <path d="M28.4811877,11.3777654 C28.540019,11.4151792 29.2974001,11.8851193 29.831451,11.5058793 C31.2930938,10.4696302 32.1447193,10.6515974 32.3943238,10.2785931 C32.7141831,9.80241736 31.322795,8.65449374 31.3622063,5.95616465 C31.3873381,4.21075388 30.7287706,4.08207306 30.5065826,4.0883087 C28.5194566,4.26687459 26.5180511,5.60413474 26.9372953,8.54962171 C27.0521019,9.35345168 27.757506,10.4395858 28.4811877,11.3777654" id="Fill-2"></path>
                            <path d="M11.6525892,19.119589 C12.2271937,19.2261616 12.7149791,19.2142572 13.0999527,19.1808116 C13.3164289,18.8712974 13.6471406,18.4019241 13.8282038,18.2176895 C14.1377819,17.9019396 14.5056201,17.5686166 14.901446,17.2369943 C14.8797413,16.2347577 14.9694162,15.3787752 15.1030717,14.772218 C15.3595303,13.6067212 15.4497763,13.0290747 14.8363318,13.2535576 C13.3209983,14.0375469 11.1419567,15.5890861 10.109268,17.060129 C9.49068295,18.0368561 10.3805773,18.8837686 11.6525892,19.119589" id="Fill-3"></path>
                            <path d="M14.6609804,21.2561441 C14.3559717,21.9318601 13.5734587,22.6455568 12.9902866,22.9970199 C12.4545223,23.3700242 11.8633537,23.7129841 11.3070269,24.0349696 C12.0804011,26.1205058 15.0870787,29.5999899 15.4697675,29.3885452 C15.6913843,29.2661 16.0066742,25.1188362 16.5755669,24.1285041 C16.0403737,23.1897576 15.2498642,21.3519461 14.9260067,20.58553 C14.8648907,20.7794015 14.7763582,20.9999162 14.6609804,21.2561441" id="Fill-4"></path>
                            <path d="M16.4978868,20.9664705 C16.7857601,21.7158804 17.2095737,22.4233415 17.7413399,23.0718475 C17.7499075,23.0826181 17.757904,23.0945225 17.7670428,23.1052931 C18.0514892,22.768002 18.4638792,22.3757239 18.9282464,22.2419412 C19.0596172,21.7022754 19.3257858,21.0520688 19.7404606,20.63995 C18.6529389,19.35711 18.4330356,17.9954741 18.4330356,16.8997031 C18.4330356,15.6219649 19.0773237,14.8266381 18.8551357,14.214979 C18.5558388,13.6815489 17.5505666,12.5024471 16.2060151,12.7269299 C16.2111557,12.7303312 16.215154,12.7331655 16.2202946,12.7359999 C16.7726231,13.0755586 16.083212,14.2399216 15.9467006,14.9768602 C15.806191,15.7325057 15.6885284,16.5799851 15.7313667,18.288549 C15.8684493,19.0526976 16.0557955,19.8151457 16.4978868,20.9664705" id="Fill-5"></path>
                            <path d="M32.3834714,23.005523 C32.4862833,23.0809175 32.5822411,23.1506432 32.6742007,23.2169677 C32.6976189,23.1761526 32.7176101,23.1330701 32.7404572,23.0911212 C33.892522,20.9800755 34.224376,18.2551033 34.3180491,15.8668553 C34.3580315,14.8328737 34.3574603,13.863516 34.3591739,13.0381448 C34.7561421,13.0307754 34.9337783,13.0823611 34.9337783,13.0823611 C34.9337783,13.0823611 35.1119856,13.0307754 35.5083827,13.0381448 C35.5100962,13.863516 35.5095251,14.8328737 35.5500787,15.8668553 C35.6431806,18.2551033 35.9750346,20.9800755 37.1270993,23.0911212 C37.1499464,23.1330701 37.1705088,23.1761526 37.1933559,23.2169677 C37.2853155,23.1506432 37.3812733,23.0809175 37.4840852,23.005523 C38.0678284,22.5729967 38.8115014,21.8173512 39.2141814,21.3921943 C39.1610619,21.3315386 39.1090848,21.2691822 39.05825,21.2056921 C37.8456404,19.7057386 37.2447619,17.5482091 37.1625123,15.6769519 C37.1236723,14.7982943 37.1990677,13.9853943 37.3784174,13.3329202 C37.953593,13.4808748 38.3442783,13.6486701 38.2614576,13.7920897 C38.1209479,14.0364131 38.2494628,14.5545377 38.2414664,14.9700577 C39.2278896,14.7421736 40.0206838,14.4094175 40.0206838,14.0375469 L40.0206838,12.8488082 C40.0206838,12.1611878 37.8256492,11.6045157 35.2016605,11.6045157 C35.1628204,11.6045157 35.0702897,11.6056495 35.0320208,11.6062163 C32.4605803,11.621522 30.3106688,12.1713916 30.3106688,12.8488082 L30.3106688,14.0375469 C30.3106688,14.3958124 30.839579,14.7166642 31.757461,14.9434145 C31.7917316,14.9519177 31.8402817,14.9615546 31.8756947,14.9700577 C31.8676982,14.5545377 31.7877334,14.0364131 31.6472238,13.7920897 C31.5649742,13.6503707 31.9253871,13.4859767 32.4857121,13.3391558 C32.4937086,13.3368883 32.5034186,13.3346208 32.5114151,13.3329202 C32.691336,13.9853943 32.7553078,14.7982943 32.7164678,15.6769519 C32.6342182,17.5482091 32.0276279,19.7057386 30.8155895,21.2056921 C30.7641836,21.2691822 30.7099217,21.3315386 30.6562311,21.3921943 C31.0589111,21.8173512 31.7997281,22.5729967 32.3834714,23.005523" id="Fill-6"></path>
                            <path d="M12.1112447,22.4993029 C13.0062796,22.1092923 13.7505237,21.1002532 14.0532477,20.137698 C13.0217014,20.2420032 10.8335209,20.3876903 9.57978662,19.0475957 C9.62605198,19.1876141 9.68488325,19.3395368 9.77284456,19.521504 C10.2800501,20.5690906 10.8632221,21.9477326 12.1112447,22.4993029" id="Fill-7"></path>
                            <path d="M19.5051355,23.5230807 C18.9265329,23.4187755 18.5929653,23.6075452 18.2565418,23.8768112 C18.1394505,23.9947214 18.025215,24.1143322 17.9269725,24.2418792 C17.3192398,25.0292698 17.0822012,25.9867231 17.3249516,27.051316 C17.6962169,28.686186 18.2896701,29.3142844 18.4124733,29.2695012 C18.6872096,29.170298 18.9836506,27.4974473 19.9592215,27.2434869 C21.667613,26.7973556 22.3364617,27.0535835 23.6107584,27.357429 C24.8479285,27.6522044 26.3301338,27.9413111 26.4940617,28.5319957 C26.6568472,29.1238141 25.4790795,30.4786474 23.9865931,31.1622997 C23.6444578,31.3187575 22.9356267,31.3040187 22.4204248,31.2354267 C22.0942825,31.1912104 21.9869012,31.0891727 21.9206446,31.1764716 C21.8155479,31.3159231 22.6180521,32.1407275 24.0414261,32.1446956 C24.3412942,32.1452625 25.2426121,32.1044474 25.9120319,31.5664822 C25.9457314,31.5398391 25.9822868,31.5103615 26.0165574,31.4831515 C26.2895802,31.2586686 27.0526731,30.5551757 27.2194569,29.5574742 C27.4445008,28.2173796 27.6889647,28.1805327 25.841206,26.9453102 C25.8086488,26.9368071 25.764097,26.9163995 25.6921287,26.8693488 C24.8810568,26.3415874 23.2195019,25.5558975 22.0228853,25.4963755 C20.6577714,25.4283504 20.0014887,26.1210727 19.171568,25.7565715 C18.4798722,25.4515923 18.9910759,24.6007117 19.5325521,24.2894968 C19.8764008,24.0910903 20.1402848,23.6863409 19.6359352,23.5519913 C19.5919545,23.5423544 19.5479738,23.53045 19.5051355,23.5230807" id="Fill-8"></path>
                            <path d="M25.2471815,28.9996683 C25.3208634,28.9939996 25.3899758,28.9480826 25.4185347,28.8760894 C25.4585171,28.7751855 25.4082535,28.6618103 25.3077263,28.622129 C24.5817599,28.3386911 23.7832539,28.2791691 22.9984562,28.3585317 C22.2148009,28.4424294 21.4088697,28.6895872 20.7131756,29.2031768 C20.5503901,29.3210869 20.3521916,29.4996528 20.244239,29.6107605 L20.1482812,29.7076963 L20.0745994,29.7745876 C20.0300475,29.8182371 19.963791,29.8658546 19.9083868,29.9106378 C19.670777,30.0778662 19.4257419,30.2377252 19.1418667,30.330126 C18.5883959,30.5449719 17.9081236,30.5846532 17.2152855,30.5222969 L17.1861555,30.5200294 C17.1216124,30.5143606 17.0553559,30.5404369 17.0130887,30.5965576 C16.9474033,30.6821559 16.9651098,30.8046011 17.0513576,30.8692249 C17.7059269,31.357305 18.5558388,31.5523103 19.4211725,31.4071901 C19.8461284,31.3232925 20.2710844,31.1634335 20.6292126,30.9111737 C20.7188874,30.845983 20.8034217,30.7904292 20.8942389,30.7116334 L21.026752,30.599392 L21.1267081,30.5069912 C21.2769277,30.361871 21.3437554,30.288744 21.4728415,30.1872733 C21.9452052,29.8199377 22.5495108,29.5552067 23.1949413,29.361902 C23.8443699,29.1714317 24.5286404,29.0506872 25.2471815,28.9996683" id="Fill-9"></path>
                            <path d="M25.2500374,19.1564359 C25.7064081,19.1768434 26.3963903,18.2896827 26.7922162,17.1973129 C27.1606256,16.1735351 27.0526731,15.2818394 26.6220054,14.8708544 C26.4083851,14.6803841 26.1502129,14.534697 25.8571989,14.4593025 C26.2547384,14.3102142 26.5483235,13.9179361 26.5700283,13.4428941 C26.5985871,12.8198976 26.1462147,12.2938368 25.561329,12.2677605 C24.9770146,12.2416842 24.4795191,12.7257962 24.4515314,13.3482259 C24.4298267,13.8238347 24.6868565,14.2404885 25.0689742,14.4241562 C24.7685349,14.4740413 24.4972256,14.5970534 24.2658988,14.7688168 C23.8032451,15.1406873 23.615899,16.0176443 23.8912065,17.0674984 C24.1842204,18.1899126 24.791382,19.1360284 25.2500374,19.1564359" id="Fill-10"></path>
                            <path d="M20.4412952,18.8021385 C20.4927012,18.8934055 20.546963,18.982405 20.6023672,19.0697039 C21.1472704,19.8928077 23.393711,19.4194663 23.5702048,19.0833089 C23.7461274,18.744884 22.6546075,18.0856074 22.8665143,16.3050503 C23.0527181,14.7393392 21.9943265,14.8243706 21.9943265,14.8243706 C21.9943265,14.8243706 22.0034653,14.8175681 22.0148888,14.8090649 C20.8662512,15.032414 19.835276,15.8798934 20.0020598,17.6048967 C20.0391864,17.9881048 20.2185361,18.4092935 20.4412952,18.8021385" id="Fill-11"></path>
                            <path d="M27.8808803,16.5278326 C27.9300015,18.3208609 26.7842198,18.8803674 26.9292988,19.2323973 C27.0732355,19.5827266 29.261416,20.2527738 29.8828569,19.4874914 C30.1907215,19.0872771 30.4740255,18.6292414 30.5865474,18.1950145 C30.5968286,18.1559 30.6093945,18.1162187 30.6162486,18.078238 C30.9383927,16.3764767 29.9902383,15.4416984 28.8684459,15.1157448 C28.8764424,15.1231142 28.8850101,15.1304836 28.8850101,15.1304836 C28.8850101,15.1304836 27.8368996,14.9530514 27.8808803,16.5278326" id="Fill-12"></path>
                            <path d="M23.609616,69.2920706 L23.696435,69.2331156 C24.2316282,68.8737163 24.7811008,68.760908 25.3174363,68.7490036 C25.8686225,68.7325642 26.4278051,68.8005893 27.0726643,68.9133976 C27.767216,69.0386771 28.5503002,69.0936641 29.3111084,69.0324415 C29.6960819,69.0040977 30.0850537,68.9304038 30.482022,68.8249649 C30.6790782,68.7580736 30.8801326,68.692316 31.0834717,68.5863102 C31.2713891,68.4803044 31.5335595,68.3476555 31.6660726,68.0585488 C31.6734979,68.0426763 31.6792097,68.0234025 31.6826368,68.0063962 C31.7049127,67.8845179 31.6232343,67.7688752 31.5015736,67.7473339 L31.2525402,67.7025507 C31.0703346,67.6708057 30.7310553,67.6033475 30.4169078,67.5137811 L29.4350539,67.2637888 C28.7627781,67.1010955 28.1219171,66.9588096 27.4028048,66.8380651 C26.636856,66.7076836 25.7281128,66.7122186 24.881628,67.0398729 C24.0397126,67.3629921 23.2469184,68.0902938 23.1823754,69.0488809 C23.1783771,69.1072691 23.1932277,69.167358 23.2286407,69.2189437 C23.313175,69.3442232 23.483957,69.3759683 23.609616,69.2920706" id="Fill-13"></path>
                            <path d="M28.3241139,72.1814369 C28.8992895,72.0295142 29.4219168,71.8537827 29.9771012,71.642338 C30.5231467,71.4303264 31.0754752,71.1695635 31.5981025,70.8039286 C31.8602729,70.6219614 32.1024521,70.3923767 32.3092183,70.1333144 C32.4148861,70.0052005 32.4988492,69.8623478 32.5748158,69.7115588 C32.6102288,69.6316293 32.6502112,69.5488654 32.6759142,69.4740378 L32.7296049,69.2608925 C32.7541655,69.1622561 32.7233219,69.0534159 32.6393588,68.9825564 C32.5222675,68.8833532 32.3452025,68.8969582 32.2452465,69.0137346 C31.8956859,69.4196177 31.4975753,69.5755086 31.0314946,69.7200619 C30.5688409,69.8532777 30.0593507,69.9230035 29.538437,69.989328 C29.0243774,70.0550856 28.4657659,70.1117731 27.9551333,70.1616582 C27.4433584,70.2075752 26.9207312,70.2325177 26.3918209,70.2517915 L24.7519707,70.3050778 C24.1825069,70.3345554 23.590196,70.3640329 22.9093526,70.5199238 C22.5700732,70.600987 22.1930962,70.7069928 21.8138344,70.9382781 C21.4408556,71.1684297 21.0690191,71.5431347 20.8862424,71.9790622 C20.694898,72.4127223 20.6726221,72.8458154 20.7485886,73.2114503 C20.8331229,73.5799196 20.9839137,73.897937 21.2506535,74.1723049 C21.2575077,74.1796743 21.2655041,74.1881774 21.2740718,74.1944131 C21.4237203,74.3247945 21.65162,74.308922 21.7818485,74.1598337 L21.7961279,74.1433943 C22.03488,73.8712938 22.1936674,73.637741 22.363307,73.4631432 C22.5255214,73.2891123 22.6694581,73.1882084 22.7734124,73.1558965 C22.8825072,73.1252852 22.9316285,73.1184827 23.0412945,73.080502 C23.1435353,73.0419545 23.2960397,72.9722287 23.4930958,72.925178 C24.3098795,72.7364084 25.477366,72.6853895 26.601443,72.5204287 C27.1720492,72.4387985 27.7483671,72.331659 28.3241139,72.1814369" id="Fill-14"></path>
                            <path d="M40.0361056,11.5058793 C40.5701564,11.8851193 41.3275376,11.4151792 41.3863689,11.3777654 C42.1106218,10.4395858 42.8154546,9.35345168 42.9302613,8.54962171 C43.3500766,5.60413474 41.3486712,4.26687459 39.360974,4.0883087 C39.138786,4.08207306 38.4802185,4.21075388 38.5053503,5.95616465 C38.5441904,8.65449374 37.1539447,9.80241736 37.4726616,10.2785931 C37.7228373,10.6515974 38.5750339,10.4696302 40.0361056,11.5058793" id="Fill-15"></path>
                            <path d="M69.8344283,40.0310725 C69.7087693,39.6121513 69.2649645,39.3746303 68.8428644,39.499343 L68.8091649,39.5089799 C67.8901406,39.7810803 66.9288491,40.0662189 65.9841217,40.2833323 C65.511758,40.398975 65.0411079,40.5106495 64.5716001,40.6132541 C64.1026635,40.7118905 63.6400099,40.7912531 63.131662,40.8581444 C62.1435252,40.9890927 61.1491054,41.0990667 60.1581127,41.184098 C59.5024011,41.2385181 58.828983,41.2838682 58.1772696,41.3110782 C58.2823663,41.2844351 58.3863205,41.2577919 58.4954154,41.2277475 C58.7718652,41.1517861 59.0426033,41.0735573 59.3110567,40.9902265 C59.846821,40.8241319 60.3723042,40.6444322 60.8915044,40.4562294 C61.9321896,40.0786901 62.9414599,39.6688389 63.949588,39.2295101 C64.9571448,38.8015188 66.0132518,38.3157062 66.9471267,37.7170853 C67.8872847,37.1014581 68.7703249,36.4586209 69.5968185,35.658759 C69.8509924,35.4127349 69.9161066,35.0176224 69.7299028,34.6979045 C69.5099995,34.3203651 69.0233564,34.1911174 68.6429523,34.4093647 L68.6103952,34.4280716 C67.7393497,34.9274892 66.8168983,35.4410787 65.8973028,35.87814 C64.967426,36.3305069 64.0843858,36.7618995 63.0922508,37.09749 C62.1069698,37.439883 61.1034112,37.7590341 60.104422,38.0368033 C59.6046418,38.175121 59.1037193,38.3038018 58.6056526,38.4166101 L58.2081132,38.4999409 C58.4777089,38.3871326 58.738737,38.2692224 58.9929109,38.1467772 C59.5361005,37.8848805 60.0570143,37.6048439 60.5659333,37.3151703 C61.5832002,36.7335557 62.5559152,36.111126 63.5069255,35.4643206 C64.4819253,34.8124134 65.4529268,34.1026848 66.2988404,33.2931861 C67.1436118,32.4666811 67.9215553,31.6226029 68.6041123,30.622067 C68.8051667,30.3272916 68.7863178,29.9231091 68.5338574,29.6481743 C68.2379876,29.3256219 67.7347803,29.3018132 67.4109228,29.5954549 L67.3806504,29.622098 C66.6009933,30.3272916 65.7607914,31.0523258 64.9045965,31.6962968 C64.0455458,32.3521722 63.2076286,32.9916081 62.2680418,33.5261721 C61.3136045,34.0771754 60.3454589,34.5998349 59.3687456,35.0663738 C58.8986666,35.2902897 58.4268741,35.5000338 57.9567952,35.6871028 C58.0299059,35.6372178 58.1053013,35.5884664 58.1766984,35.5380145 C58.7073222,35.1667108 59.1973924,34.7772671 59.6714696,34.3776196 C60.6167681,33.5794584 61.4980948,32.7359471 62.3417237,31.8810983 C63.2253351,30.9882688 64.0535423,30.0670956 64.7555192,29.051254 C65.4483574,28.0235081 66.0680848,26.9895265 66.5535855,25.8132591 C66.6906681,25.480503 66.5838579,25.0853905 66.2754222,24.8694108 C65.9161516,24.6182848 65.4203697,24.7038831 65.1679093,25.0598811 L65.1439198,25.0933268 C64.5059147,25.9923919 63.801653,26.9220683 63.0619784,27.7712483 C62.3263019,28.6283646 61.5837714,29.4826466 60.7498524,30.215617 C59.9090794,30.9565238 59.0568827,31.6605836 58.1789831,32.307389 C58.2772257,32.1798419 58.3788952,32.0534286 58.4731395,31.9258815 C59.247656,30.8709255 59.9245012,29.7915939 60.5687892,28.6963897 C61.2439208,27.5756762 61.8413724,26.4169819 62.2880331,25.2027338 C62.728982,23.9799826 63.0853966,22.7657345 63.273314,21.4426462 C63.3252911,21.0798457 63.1145267,20.717612 62.7524002,20.5906318 C62.339439,20.4449447 61.885353,20.6597907 61.7385604,21.0696419 L61.7248522,21.1087564 C61.3370228,22.1960243 60.867515,23.3286422 60.3454589,24.389267 C59.8228316,25.457828 59.2790707,26.5099496 58.6302133,27.489511 C58.1789831,28.147087 57.708333,28.7853893 57.2262593,29.4072521 C55.740627,31.0506252 53.2365855,32.6951321 51.8817528,33.3487399 C50.2756021,34.1230923 48.3061825,35.1321314 48.3216043,36.755097 C48.330172,37.7159515 49.3046006,38.6563986 49.9660239,38.7567356 C50.626305,38.8576395 50.9478778,38.622386 50.9478778,38.622386 C50.9478778,38.622386 50.7274034,38.0504083 51.1009534,37.8486005 C51.473361,37.6467927 51.9354435,38.1722866 52.0708125,38.7436975 C52.2067527,39.3156752 51.6727019,39.9551112 51.0118497,40.1234733 C50.4355317,40.2702942 49.3205935,39.9154299 48.6745919,39.6098838 C48.6637396,39.6047819 48.6540296,39.59968 48.6431772,39.5945781 C48.56207,39.5554637 48.4866746,39.5169161 48.4238451,39.481203 C48.4072809,39.4715661 48.394715,39.4675979 48.3792932,39.4602286 C47.3740211,38.9222634 46.1774045,38.1031278 44.8465613,36.8849115 C44.8465613,36.8849115 43.0930468,35.0295268 42.1962984,32.768259 C42.9079854,32.8810673 43.6545142,32.7257434 43.6556565,32.7257434 C43.2404106,32.2603383 42.4893124,31.3731776 42.1797342,30.7207034 C41.8884338,30.1073438 41.6365446,28.3233854 42.0215181,27.7383695 C42.4778888,27.0450804 43.1695846,26.5365927 43.8492856,26.1822953 C44.6734946,25.7514697 45.4811393,25.1658869 46.3139159,24.6154504 C46.3162006,24.6137498 46.3162006,24.6126161 46.3184853,24.6109154 C47.1809632,23.8598049 45.8495487,24.0270333 45.3623345,24.0321352 C44.874549,24.0361033 44.652361,24.023632 44.2862363,23.53045 C43.9595229,23.0899875 44.3050852,22.6296843 44.6677828,22.3456795 C44.9505156,22.1257317 45.5565348,21.9862802 46.0643114,22.0157577 C46.0351814,22.0990885 46.0111919,22.1852536 45.9969125,22.2770875 C45.8992412,22.8972497 46.2036787,23.4584568 46.6737577,23.53045 C47.1455502,23.6030101 47.6059191,23.1585795 47.7018769,22.5372835 C47.705304,22.5163091 47.7047328,22.4959016 47.7064463,22.4749272 C47.8823689,22.5922705 48.0297327,22.7419257 48.1051281,22.9443004 C48.2936166,23.4488199 48.2639154,23.4958706 48.7174302,23.3224066 C48.7465603,23.3110691 48.7734056,23.3088016 48.8019645,23.3002984 C49.2583352,23.1359044 49.4399696,23.09679 49.6427376,22.7850083 C49.8095213,22.4363796 49.950031,22.2096293 49.8974827,21.8695038 C49.8449343,21.5288114 49.5690557,21.1444695 49.1766568,20.8882417 C49.0041613,20.7760002 48.7048643,20.6677269 48.3547326,20.5724918 L48.3415955,20.2771495 C48.3415955,20.2771495 48.3455938,20.2731814 48.3467361,20.2714807 C48.3261738,20.274882 48.3130367,20.2760157 48.2919031,20.2788501 C47.2872021,20.4228366 46.1848298,20.0390616 45.6513502,20.0872461 C45.1178705,20.1354305 45.0156298,20.4137666 44.6769216,20.4404097 C44.3347864,20.4432441 44.207985,20.1762456 43.6716495,20.1751118 C43.1358851,20.1739781 42.0734952,20.6552557 41.0607978,20.6014025 C41.0402354,20.6002687 41.0265271,20.6002687 41.0065359,20.599135 C41.0076783,20.6002687 41.0116765,20.60367 41.0116765,20.60367 L41.0270983,20.9630693 C40.6175642,21.1943546 40.166334,21.5718939 39.7042516,22.0599741 L39.6996821,22.0560059 C39.6631268,22.0996554 39.6260003,22.1416042 39.5894449,22.1846867 C39.4763518,22.3071319 39.3638299,22.4352459 39.2507367,22.5695955 C37.6234525,24.3648913 35.7956849,25.5768719 35.7956849,25.5768719 C35.7956849,25.5768719 36.3211681,25.8518067 37.0191468,26.0915952 C36.9957285,26.1375121 36.9740238,26.1834291 36.9511767,26.2299129 C35.702583,28.7882236 34.9337783,31.2076498 34.9337783,31.2076498 C34.9337783,31.2076498 34.1649736,28.7882236 32.9163799,26.2299129 C32.8935328,26.1834291 32.8712569,26.1375121 32.8484098,26.0915952 C33.5463885,25.8518067 34.0724428,25.5768719 34.0724428,25.5768719 C34.0724428,25.5768719 32.2441041,24.3648913 30.6168198,22.5695955 C30.5037267,22.4352459 30.3912048,22.3071319 30.2786828,22.1846867 C30.2421275,22.1416042 30.2044298,22.0996554 30.1678744,22.0560059 L30.1638762,22.0599741 C29.7017937,21.5718939 29.2499924,21.1943546 28.8404582,20.9630693 L28.8564512,20.60367 C28.8564512,20.60367 28.8598783,20.6002687 28.8610206,20.599135 C28.8410294,20.6002687 28.8278923,20.6002687 28.8067588,20.6014025 C27.7940613,20.6552557 26.7316714,20.1739781 26.1959071,20.1751118 C25.6595716,20.1762456 25.5327702,20.4432441 25.1912061,20.4404097 C24.8519268,20.4137666 24.749686,20.1354305 24.2162064,20.0872461 C23.6827267,20.0390616 22.5803544,20.4228366 21.5756535,20.2788501 C21.5545199,20.2760157 21.5408116,20.274882 21.5208204,20.2714807 C21.5219628,20.2731814 21.525961,20.2771495 21.525961,20.2771495 L21.5128239,20.5724918 C21.1626922,20.6677269 20.8633953,20.7760002 20.6914709,20.8882417 C20.2985009,21.1444695 20.0231934,21.5288114 19.9700739,21.8695038 C19.9175256,22.2096293 20.0580352,22.4363796 20.224819,22.7850083 C20.4281581,23.09679 20.6092214,23.1359044 21.0661633,23.3002984 C21.0947221,23.3088016 21.1209963,23.3110691 21.1501263,23.3224066 C21.6042123,23.4958706 21.5739399,23.4488199 21.7629996,22.9443004 C21.8378239,22.7419257 21.9851876,22.5922705 22.1605391,22.4749272 C22.163395,22.4959016 22.1622526,22.5163091 22.1656797,22.5372835 C22.2622086,23.1585795 22.7220064,23.6030101 23.1937989,23.53045 C23.664449,23.4584568 23.9683154,22.8972497 23.8712152,22.2770875 C23.8569358,22.1852536 23.8323752,22.0990885 23.8032451,22.0157577 C24.3110218,21.9862802 24.917041,22.1257317 25.1997738,22.3456795 C25.5624714,22.6296843 25.9080337,23.0899875 25.5818914,23.53045 C25.2151956,24.023632 24.9930076,24.0361033 24.5052221,24.0321352 C24.0180078,24.0270333 22.6871646,23.8598049 23.5490712,24.6109154 C23.5513559,24.6126161 23.5519271,24.6137498 23.5542118,24.6154504 C24.3864172,25.1658869 25.194062,25.7514697 26.0188421,26.1822953 C26.697972,26.5365927 27.3902389,27.0450804 27.8460385,27.7383695 C28.231012,28.3233854 27.9791228,30.1073438 27.6883935,30.7207034 C27.3782442,31.3731776 26.6277172,32.2603383 26.2124712,32.7257434 C26.2130424,32.7257434 26.9601424,32.8810673 27.6712582,32.768259 C26.7745098,35.0295268 25.0215664,36.8849115 25.0215664,36.8849115 C23.690152,38.1031278 22.4941066,38.9222634 21.4876921,39.4602286 C21.4728415,39.4675979 21.4608468,39.4715661 21.4437115,39.481203 C21.380882,39.5169161 21.3054866,39.5554637 21.2243794,39.5945781 C21.2140982,39.59968 21.203817,39.6047819 21.1935358,39.6098838 C20.546963,39.9154299 19.432596,40.2702942 18.8557069,40.1234733 C18.1954259,39.9551112 17.6608039,39.3156752 17.7967441,38.7436975 C17.9321131,38.1722866 18.3941956,37.6467927 18.7666032,37.8486005 C19.139582,38.0504083 18.9196787,38.622386 18.9196787,38.622386 C18.9196787,38.622386 19.2412516,38.8576395 19.9021038,38.7567356 C20.562956,38.6563986 21.5373846,37.7159515 21.5465234,36.755097 C21.561374,35.1321314 19.5919545,34.1230923 17.9858038,33.3487399 C16.6309711,32.6951321 14.1275007,31.0506252 12.6412972,29.4072521 C12.1597947,28.7853893 11.6880022,28.147087 11.2373433,27.489511 C10.5884858,26.5099496 10.0441538,25.457828 9.52152653,24.3898338 C9.0000416,23.3286422 8.53167617,22.1960243 8.14270439,21.1087564 L8.12899613,21.0690751 C8.00562182,20.7232808 7.65034951,20.4999317 7.26994539,20.5526512 C6.83527942,20.6133069 6.5331266,21.0118206 6.59424258,21.4426462 C6.78215993,22.7657345 7.1385746,23.9799826 7.58009469,25.2027338 C8.02618421,26.4169819 8.6242069,27.5756762 9.29876736,28.6963897 C9.94305542,29.7915939 10.6199006,30.8709255 11.3944171,31.9258815 C11.4886613,32.0539955 11.5909021,32.1804088 11.6885734,32.3079558 C10.8118162,31.6611505 9.95961956,30.9565238 9.11827531,30.215617 C8.28435637,29.4826466 7.54182581,28.6283646 6.80614938,27.7712483 C6.0664747,26.9220683 5.36164184,25.9923919 4.72363674,25.0933268 L4.70021846,25.0598811 C4.49116755,24.7656725 4.09876871,24.6426605 3.74920817,24.7849463 C3.34310107,24.9493403 3.14832959,25.4102104 3.31511338,25.8132591 C3.79947177,26.9895265 4.41919921,28.0235081 5.11203734,29.051254 C5.81458549,30.0670956 6.64222148,30.9882688 7.52640402,31.8810983 C8.37003298,32.7359471 9.25078846,33.5794584 10.1966582,34.3776196 C10.6701642,34.7772671 11.1608055,35.1672777 11.6908581,35.5385814 C11.7628265,35.5884664 11.8370795,35.6372178 11.9101902,35.686536 C11.4406824,35.5000338 10.9683188,35.2897229 10.4982398,35.0658069 C9.52209771,34.5998349 8.55395209,34.0771754 7.59951472,33.5261721 C6.65992797,32.9916081 5.82201079,32.3521722 4.96296005,31.6962968 C4.10733637,31.0523258 3.26713448,30.3272916 2.48690621,29.622098 L2.45720499,29.5954549 C2.19217869,29.3550995 1.78664277,29.3171188 1.47592229,29.5257291 C1.11265349,29.7706195 1.01726687,30.2609671 1.26344431,30.622067 C1.94657243,31.6226029 2.72451599,32.4666811 3.5692873,33.2931861 C4.41462979,34.1026848 5.38563129,34.8124134 6.36063104,35.4643206 C7.31164134,36.111126 8.28435637,36.7335557 9.30162325,37.3151703 C9.81111345,37.6048439 10.331456,37.8848805 10.8752169,38.1467772 C11.1293908,38.2692224 11.3898477,38.3865657 11.6600145,38.4999409 L11.2613328,38.4160432 C10.7638373,38.3032349 10.2629147,38.1745541 9.76313455,38.0368033 C8.76471653,37.7590341 7.76058674,37.439883 6.7753058,37.09749 C5.78317073,36.7618995 4.90013054,36.3305069 3.97082498,35.87814 C3.05065826,35.4410787 2.12820683,34.9274892 1.25773254,34.4280716 L1.22460425,34.4093647 C0.917310834,34.2324994 0.516915507,34.2778495 0.257600988,34.5420136 C-0.04969243,34.8537953 -0.0434094791,35.3543467 0.271309244,35.658759 C1.0972317,36.4586209 1.98027189,37.1014581 2.921001,37.7170853 C3.8543048,38.3157062 4.91098291,38.8020857 5.91796859,39.2295101 C6.92609662,39.6688389 7.93593819,40.0786901 8.97548098,40.4562294 C9.49582355,40.6444322 10.0207355,40.823565 10.5564999,40.9890927 C10.8249533,41.0735573 11.0956913,41.1517861 11.3727123,41.2271806 C11.4823784,41.2577919 11.5863327,41.2844351 11.6920005,41.3110782 C11.0397159,41.2838682 10.3657267,41.2385181 9.71001506,41.184098 C8.71902234,41.0990667 7.72403139,40.9890927 6.73589456,40.8581444 C6.22811789,40.7912531 5.76546423,40.7118905 5.29538527,40.6132541 C4.82644866,40.5106495 4.35579852,40.398975 3.88343484,40.2833323 C2.93927868,40.0662189 1.97741601,39.7810803 1.05839164,39.5089799 L1.02354982,39.4987761 C0.68712636,39.399006 0.311862836,39.531088 0.11880489,39.8423029 C-0.111950762,40.2136066 0.00456941885,40.7011198 0.379261765,40.9301377 C1.30856732,41.499281 2.25672173,41.9170685 3.25285504,42.3014104 C4.23470892,42.6727141 5.32680002,42.9125025 6.33092982,43.1188454 C7.34476962,43.3376594 8.35975179,43.5343654 9.38558632,43.7061287 C10.3166054,43.8586183 11.2213503,43.9935348 12.1974924,44.0921712 C11.597185,44.1635976 10.991737,44.2316227 10.3891449,44.2905778 C9.44327523,44.3824116 8.49512082,44.4606405 7.54639523,44.5212962 C7.3099278,44.5388694 7.07688744,44.5468056 6.83356589,44.5553088 L6.15329366,44.5672132 L4.77561388,44.5411369 C3.8543048,44.5315 2.90443686,44.4668761 1.98883955,44.4181248 L1.9574248,44.4158573 C1.61014897,44.3971504 1.2788661,44.6074614 1.16063239,44.9498544 C1.01783805,45.3631069 1.24002604,45.8132063 1.65641433,45.956059 C2.62970055,46.2865477 3.59213439,46.4843873 4.58941006,46.6459469 C5.08690553,46.7179402 5.59011279,46.7638571 6.09731828,46.7848315 C6.3514922,46.7967359 6.60680848,46.8029716 6.86269593,46.8063728 L7.59437413,46.8160097 C8.57280094,46.837551 9.55065657,46.8415191 10.5285122,46.8296147 C11.2059286,46.8216785 11.8787755,46.8035384 12.5584765,46.7797297 L12.49222,46.9787031 C11.3630023,47.330733 10.2292153,47.6725591 9.09485704,47.9877421 C8.21752862,48.2326325 7.38475204,48.3958927 6.51998952,48.5733249 C5.66208113,48.7649289 4.77275799,48.9174185 3.91142254,49.0937169 L3.88629073,49.0999525 C3.54986727,49.1679776 3.2842698,49.4491481 3.25228387,49.805713 C3.21344381,50.2416405 3.53844372,50.627683 3.97767911,50.6656637 C4.9389706,50.750695 5.86656263,50.7246188 6.81643057,50.6656637 C7.76001556,50.6021736 8.7150241,50.3918626 9.61405726,50.2252011 C10.5216581,50.0585396 11.4218336,49.8822412 12.3202956,49.6957391 L12.385981,49.992782 C12.0135733,50.2047936 11.6411657,50.4224739 11.2681869,50.627683 C10.5199445,51.0403686 9.77113103,51.3736916 9.01660575,51.7489634 C8.26893459,52.1327384 7.49384691,52.4995071 6.74846046,52.8991546 L6.73360985,52.9076577 C6.43602645,53.0680836 6.26238853,53.4059416 6.32978746,53.7551371 C6.41260818,54.1853959 6.83185236,54.4682669 7.26594715,54.3860699 C8.14841616,54.2188416 8.98519099,53.9705499 9.83224701,53.700717 C10.6735913,53.4229478 11.4903749,53.0346379 12.289452,52.6877099 C12.50193,52.5953091 12.7092674,52.4983733 12.920603,52.4054057 L13.101095,53.2177388 C13.0988103,53.2194394 13.0965256,53.2217069 13.0942409,53.2234075 L12.1712183,54.0176006 C11.5623432,54.5561327 10.9945929,55.1462505 10.4565439,55.7732152 C10.2503488,56.0147043 10.1983717,56.3656004 10.3543031,56.6632103 C10.5604981,57.0554884 11.0477124,57.207978 11.4435383,57.0044695 C12.1814995,56.6223952 12.8880459,56.2023402 13.5528963,55.7278651 L13.642,55.6626744 L15.8713052,65.7247209 C16.833739,65.7088483 17.6299603,65.6924089 18.5130005,65.678237 C17.8178776,64.7978788 18.0109356,63.8596993 16.8862874,63.8511962 L16.8862874,63.8506293 C16.8862874,63.8477949 16.9651098,63.8466611 16.9439763,63.8443936 L13.5346186,43.6653137 C13.5471845,43.6709824 13.5591793,43.6738168 13.5717452,43.6789187 C14.8591789,44.1834382 15.957553,44.3824116 16.9622539,44.376176 C17.8784224,44.3710741 18.7163396,44.193642 19.5502585,43.9294778 C20.7325957,43.554206 21.9069363,43.0009352 23.2794755,42.4873456 C23.2869008,42.4850781 23.2931838,42.4816769 23.3000379,42.4788425 C23.1498182,43.1800679 23.0155916,43.901134 22.9219185,44.6386395 C22.8448095,45.2429292 22.7836936,45.8585564 22.7836936,46.4832536 C22.7836936,54.4642988 27.454782,61.0258869 33.7377329,61.6607878 L33.7377329,63.5360132 C32.5953782,62.5116685 30.1861521,60.9538936 27.1571986,60.8269134 C27.029826,60.8206778 26.9167329,60.8189772 26.8047821,60.8178434 C26.4609334,60.8127415 26.1582094,60.8229453 25.844633,60.8478878 C25.8383501,60.8524229 25.8646242,60.8597922 25.8566277,60.8626266 C25.2626033,61.0842751 25.0164258,61.6250747 25.1152395,62.1692755 C25.2346156,62.8313865 26.4849228,63.4345424 26.3638332,64.1113922 C26.353552,64.1692135 26.3329897,64.2071942 26.3044308,64.2406399 C26.3038596,64.2412067 26.3032884,64.2429074 26.3027173,64.2434742 C25.9931391,63.3988292 24.785099,63.3364729 24.1687987,62.4187009 C24.1311009,62.3274338 24.0951168,62.2361668 24.063702,62.1443329 C23.918623,61.7129404 23.8535088,61.2832485 23.8655035,60.8076397 C23.8752135,60.3280627 23.9854507,59.8156069 24.1116809,59.2209541 C24.118535,59.1909097 24.1139656,59.1568972 24.0968303,59.1285534 C24.0608461,59.0684645 23.983166,59.0491907 23.9231924,59.0860377 C23.3822874,59.4102907 22.9596162,59.929549 22.7288605,60.5650168 C22.5009608,61.1834784 22.5089573,61.9051113 22.7140099,62.5371779 C22.3113299,62.5524836 21.9794758,62.6029355 21.8115497,62.3858221 C21.6961719,61.9816396 21.648193,61.5757565 21.6744671,61.1352939 C21.7013125,60.6307744 21.8441068,60.0933761 22.0108906,59.4805833 C22.0188871,59.4494051 22.0160312,59.4125582 21.9983247,59.3825138 C21.9634829,59.3241255 21.8869451,59.303718 21.8264003,59.3382974 C21.2557941,59.6676523 20.7982811,60.2010825 20.5429648,60.8648941 C20.2853638,61.527572 20.2882197,62.3132619 20.5195465,62.988978 C20.5264007,63.0093855 20.5366818,63.0280924 20.543536,63.0484999 C20.5401089,63.1012194 20.5366818,63.153372 20.5332548,63.2072252 C20.5286854,63.2100596 20.5252583,63.2123271 20.5212601,63.2145946 C20.417877,63.3988292 20.1294324,63.5875989 19.9969192,63.8670687 C19.8101442,63.5382807 19.6627805,63.2055245 19.5736768,62.8670997 C19.4508737,62.399994 19.4211725,61.9181495 19.4691514,61.3909549 C19.513132,60.8620597 19.6524993,60.3048208 19.7844413,59.6744548 C19.7907242,59.6427098 19.7855836,59.6058628 19.7655924,59.577519 C19.7267524,59.5202646 19.6490722,59.5055258 19.5913833,59.5440734 C19.0390548,59.9153771 18.6095294,60.4522085 18.3433608,61.0990139 C18.076621,61.7418511 18.0200744,62.513936 18.2097053,63.2213971 C18.3290814,63.6777321 18.5432729,64.0949528 18.8088703,64.463989 C18.8128686,64.4804284 18.8105839,64.4951671 18.8197227,64.5144409 C19.2886593,65.4701936 20.7068927,66.3822969 21.8583862,66.5183471 C22.050873,66.5404552 22.2524986,66.5483915 22.4609784,66.5432896 C22.6683157,66.5393215 22.8825072,66.5217483 23.0984123,66.4939714 C23.1046952,66.4934045 23.1098358,66.4934045 23.1155476,66.4928377 C23.9785966,66.3811631 24.871918,66.0931902 25.506496,65.6992115 C28.5902826,65.8454654 30.9498162,66.2853611 32.7490249,67.4174122 C32.7570214,67.4230809 32.7644467,67.4276159 32.7724432,67.4332847 C32.8209932,67.4627622 32.8649739,67.5001761 32.9129528,67.5313542 C33.7463006,68.1826946 34.0815817,69.5312923 33.4018806,70.4910131 C33.1676979,70.729101 32.9249475,70.9592525 32.6844819,71.1792004 C31.8614153,71.8849608 30.9680939,72.4835817 30.0302207,72.9319805 C29.0934898,73.3854812 28.1139207,73.6677854 27.1206432,73.8106381 C26.1239387,73.9920384 25.129519,74.1224198 23.8283769,74.4279659 L23.8192381,74.4302334 C23.7689745,74.4432716 23.7204244,74.4676472 23.6798708,74.505061 C23.5524983,74.6229712 23.5445018,74.820244 23.6627355,74.9460905 C24.6177441,75.9693014 26.0291233,76.3757514 27.3896678,76.2992231 C28.755924,76.1943511 30.0684896,75.7125066 31.1999919,75.0237525 C32.333779,74.3287627 33.3076364,73.422895 34.0444551,72.3560347 C34.0678734,72.322589 34.0895782,72.2868758 34.1124252,72.2517295 C34.1067135,72.2738377 34.1021441,72.2948121 34.0958611,72.3157865 C33.9290773,72.893433 33.7365905,73.4705126 33.5600967,74.0464585 C33.3533305,74.3531383 33.1465643,74.63771 32.9318017,74.9120779 C32.5131286,75.4477756 32.0727509,75.9137476 31.5992449,76.2992231 C31.1245965,76.6846987 30.6196757,76.9936461 30.0227954,77.2334346 C29.4264862,77.4788918 28.7405022,77.6387508 27.9334286,77.8105142 L27.9260033,77.8122148 C27.8563197,77.8269536 27.7912054,77.8683355 27.7472248,77.930125 C27.6518382,78.0622071 27.6832529,78.2470086 27.8174796,78.34111 C28.5343072,78.8461964 29.441908,79.0825836 30.3809236,79.0275967 C31.3187968,78.9714759 32.2635241,78.5854335 32.9934888,77.9834113 C33.1214325,77.8791062 33.2350968,77.7623297 33.3504747,77.6466871 C33.5583832,78.0576721 33.8045607,78.4680902 33.9639191,78.8773746 C34.1735412,79.3631872 34.3911598,79.8501335 34.6601843,80.3359461 C34.6876008,80.3846975 34.7304391,80.4289138 34.7829875,80.4578244 C34.9343495,80.5405883 35.1245515,80.4861682 35.2073722,80.3359461 C35.4763968,79.8501335 35.6945865,79.3631872 35.9036374,78.8773746 C36.0635671,78.4680902 36.3091734,78.0576721 36.5170819,77.6466871 C36.6324597,77.7623297 36.746124,77.8791062 36.8740678,77.9834113 C37.6040324,78.5854335 38.5481886,78.9714759 39.4872042,79.0275967 C40.4250774,79.0825836 41.3332494,78.8461964 42.0506481,78.34111 C42.1089082,78.3002949 42.1528889,78.2373717 42.1688819,78.1625441 C42.2037237,78.003252 42.1014829,77.8462274 41.9415533,77.8116479 L41.934128,77.8099473 C41.1276255,77.637617 40.4416415,77.4788918 39.8447612,77.2334346 C39.248452,76.9936461 38.7429601,76.6846987 38.2683117,76.2992231 C37.7948057,75.9137476 37.3544279,75.4477756 36.9357549,74.9120779 C36.7209922,74.63771 36.5147972,74.3531383 36.3068886,74.0464585 C36.130966,73.4705126 35.9384793,72.8922992 35.7716955,72.3157865 C35.7659837,72.2948121 35.7614143,72.2738377 35.7557025,72.2522964 C35.7785496,72.2874427 35.8002543,72.322589 35.8236726,72.3560347 C36.5599202,73.422895 37.5337776,74.3287627 38.6675647,75.0237525 C39.7996382,75.7125066 41.1122037,76.1943511 42.47846,76.2992231 C43.8390044,76.3746176 45.2503837,75.9693014 46.2053922,74.9460905 C46.240234,74.9075429 46.2676506,74.8593585 46.2802165,74.8049384 C46.3201989,74.6371431 46.2156734,74.4699147 46.0466049,74.4296666 L46.0391796,74.4273991 C44.7380376,74.1224198 43.7436178,73.9909046 42.7469133,73.8106381 C41.7542071,73.6677854 40.7746379,73.3854812 39.8373359,72.9319805 C38.8994627,72.4835817 38.0061413,71.8838271 37.1836459,71.1797673 C36.942609,70.9592525 36.6992875,70.7285341 36.465676,70.4898793 C35.7859749,69.5307254 36.1218272,68.1826946 36.9546038,67.5313542 C37.0025827,67.5001761 37.0465633,67.4627622 37.0951134,67.4332847 C37.1031099,67.4276159 37.1111064,67.4230809 37.1185317,67.4174122 C38.9177403,66.2853611 41.277274,65.8454654 44.3616317,65.6992115 C44.9956386,66.0931902 45.8895312,66.3811631 46.7525801,66.4928377 C47.1929579,66.5500921 47.6253391,66.5636971 48.0097415,66.5183471 C49.1600927,66.3822969 50.5788972,65.4701936 51.0478339,64.5144409 C51.0575439,64.4951671 51.0552592,64.4809952 51.0592574,64.463989 C51.3237125,64.0960865 51.537904,63.678299 51.6578513,63.2219639 C51.8474822,62.513936 51.7909356,61.7429848 51.5241958,61.1001476 C51.2580271,60.4522085 50.8279306,59.9153771 50.2767444,59.5440734 C50.2493279,59.5259333 50.2127726,59.518564 50.1785019,59.5253665 C50.1105318,59.541239 50.0682647,59.6075635 50.0831153,59.6744548 C50.2156284,60.3048208 50.3544245,60.8626266 50.3984052,61.3909549 C50.4463841,61.9181495 50.4172541,62.399994 50.2938797,62.8676665 C50.2042049,63.2066583 50.0579835,63.5382807 49.8706373,63.8670687 C49.7381242,63.5875989 49.4496796,63.3988292 49.3468677,63.2145946 C49.3428694,63.2123271 49.3383,63.2100596 49.334873,63.2072252 C49.3314459,63.153372 49.3274477,63.1012194 49.3240206,63.0484999 C49.3314459,63.0280924 49.3417271,63.0093855 49.34801,62.988978 C49.5799081,62.3132619 49.5827639,61.527572 49.3245918,60.8648941 C49.0692755,60.2016494 48.6117624,59.6676523 48.0411563,59.3388643 C48.0131686,59.3224249 47.9766132,59.3161893 47.9434849,59.326393 C47.8766572,59.3450999 47.8383883,59.4142588 47.856666,59.4805833 C48.0234498,60.0933761 48.1662441,60.6307744 48.1936606,61.1352939 C48.2193636,61.5751896 48.1713847,61.9816396 48.056578,62.3858221 C47.9297767,62.5485154 47.7115869,62.5615536 47.44142,62.5502161 C47.3500317,62.5468148 47.2535027,62.5405792 47.1529755,62.5371779 C47.357457,61.9051113 47.3648823,61.1834784 47.1369825,60.5650168 C46.9056557,59.929549 46.4818421,59.4102907 45.9409371,59.0860377 C45.9158053,59.0718658 45.8803923,59.0667639 45.8489776,59.0718658 C45.7821498,59.0883052 45.7398827,59.1546297 45.7553045,59.2209541 C45.8821058,59.8161738 45.9929143,60.3280627 46.0014819,60.8076397 C46.0140478,61.2826816 45.9489336,61.7129404 45.8032834,62.1448998 C45.773011,62.2361668 45.6781955,62.3274338 45.6393555,62.4187009 C45.0247686,63.3364729 44.0189253,63.3988292 43.447748,64.2434742 L43.447748,64.2423405 C43.447748,64.2088948 43.4534597,64.1692135 43.4426074,64.1113922 C43.3723525,63.7179803 43.7727479,63.3489441 44.1714297,62.979908 C44.4393118,62.7129094 44.6752081,62.4470446 44.7254717,62.1692755 C44.8248566,61.6250747 44.5729673,61.0842751 43.9789429,60.8626266 C43.9703752,60.8597922 43.9743735,60.8524229 43.9680905,60.8478878 C43.9446723,60.8456203 43.924681,60.8450535 43.9029763,60.8433528 C43.7304807,60.8314484 43.5591275,60.8218116 43.3774931,60.8189772 C43.3660696,60.8189772 43.3552172,60.8189772 43.3437937,60.8178434 C43.1238904,60.8144422 42.8948483,60.8172766 42.6486708,60.8269134 C39.808777,60.9453905 37.4515281,62.3234657 36.2406321,63.3376066 C36.1606672,63.4050648 36.0224423,63.4719562 36.0224423,63.5360132 L36.0224423,61.6607878 C42.3053932,61.0258869 47.0158929,54.4642988 47.0158929,46.4832536 C47.0158929,45.7298756 46.9576328,44.9918032 46.8662444,44.266769 C46.7868508,43.6585112 46.6823253,43.0615909 46.5566663,42.4788425 C46.558951,42.4805431 46.5600934,42.48111 46.5623781,42.4816769 C46.5835116,42.4907469 46.6029317,42.4975494 46.6246364,42.5060525 C46.6229229,42.4969825 46.7137401,42.4884794 46.7114554,42.4788425 C46.7137401,42.4805431 46.8748121,42.48111 46.8748121,42.4816769 L46.8748121,42.4788425 C48.0171668,42.8660187 48.6711649,43.2753031 49.5622016,43.6165624 C50.697131,44.0479549 51.7143978,44.3659722 52.9509968,44.3756091 C53.6524026,44.3778766 54.3806537,44.2730046 55.2082897,44.0400186 C55.2665498,44.0241461 55.3093881,44.0145092 55.3682194,43.9963692 C55.4716025,43.965191 55.5784126,43.9198409 55.6846516,43.8846946 C55.8411542,43.8319752 55.9959433,43.7792557 56.1553018,43.7203006 L53.5016118,59.7260405 L52.8413308,63.8733043 C52.8207684,63.8755718 52.861322,63.9078837 52.861322,63.9078837 L52.8693184,63.9078837 C51.7440991,63.9078837 51.9937036,64.8262226 51.2985807,65.7065808 C52.1810497,65.7207527 53.0646611,65.7235871 54.0276661,65.737759 L56.2409784,55.6706106 L56.3226567,55.7324001 C56.9875072,56.2068752 57.6900553,56.6246627 58.4285877,57.0056033 C58.7113204,57.1518572 59.0671639,57.121246 59.3236226,56.9035656 C59.6629019,56.6167264 59.701742,56.1099394 59.4127262,55.7732152 C58.874106,55.1462505 58.3057845,54.5566996 57.6974806,54.0181675 L56.7733157,53.2234075 C56.7716021,53.2217069 56.7693174,53.2194394 56.7670327,53.2177388 L56.9469536,52.4054057 C57.1582892,52.4983733 57.3661978,52.5953091 57.5786757,52.6877099 C58.3777529,53.034071 59.1945365,53.4229478 60.0353096,53.700717 C60.8817944,53.9705499 61.7191404,54.2182747 62.6016094,54.3855031 C62.935177,54.4489932 63.2858799,54.2959367 63.4560907,53.9841549 C63.666284,53.5975456 63.5217761,53.1157011 63.1328044,52.9076577 L63.1196673,52.9002883 C62.3737097,52.4995071 61.5997643,52.1327384 60.851522,51.7489634 C60.0969967,51.3736916 59.347612,51.0403686 58.5999409,50.627683 C58.2258197,50.4224739 57.8545544,50.2047936 57.4815756,49.992782 L57.547261,49.6957391 C58.445723,49.8822412 59.3458985,50.0585396 60.2534993,50.2252011 C61.1525325,50.3918626 62.107541,50.6021736 63.0516972,50.6656637 C64.0015651,50.7246188 64.928586,50.7501282 65.8893063,50.6656637 C66.2320127,50.6350524 66.5290249,50.3867607 66.6015644,50.0352977 C66.6912393,49.6073064 66.4130759,49.1878183 65.9812658,49.0999525 L65.9572764,49.0937169 C65.0959409,48.9174185 64.2054754,48.764362 63.3481382,48.5733249 C62.4828045,48.3958927 61.6505991,48.2331994 60.7721283,47.9877421 C59.6383413,47.6725591 58.5045542,47.330733 57.3753366,46.9787031 L57.3096512,46.7797297 C57.9887811,46.8035384 58.661628,46.8216785 59.3396155,46.8296147 C60.3174712,46.8415191 61.2947556,46.837551 62.2731824,46.8160097 L63.0054318,46.8063728 C63.2607481,46.8029716 63.5160644,46.7967359 63.7696671,46.7848315 C64.278015,46.7638571 64.7812222,46.7179402 65.2787177,46.6459469 C66.2759934,46.4838205 67.237856,46.2865477 68.2111422,45.9549253 C68.5401404,45.8426839 68.7680402,45.5240996 68.7486201,45.1629997 C68.7252019,44.7270722 68.348796,44.3920485 67.9095606,44.4158573 L67.8781458,44.4169911 C66.9625485,44.4668761 66.0132518,44.5309331 65.0913715,44.5411369 L63.7148341,44.5672132 L63.0345619,44.5553088 C62.7912403,44.5468056 62.5570576,44.5388694 62.3211613,44.5212962 C61.3730069,44.4606405 60.4242813,44.3824116 59.4784116,44.2905778 C58.8758195,44.2316227 58.2709427,44.1635976 57.6706353,44.0921712 C58.6462062,43.9935348 59.5509512,43.8586183 60.4825414,43.7061287 C61.508376,43.5343654 62.5233581,43.3376594 63.5366268,43.1188454 C64.5407565,42.9125025 65.6334188,42.6727141 66.6147015,42.3014104 C67.6108348,41.9170685 68.5589892,41.499281 69.488866,40.9301377 C69.7881629,40.7470368 69.9389537,40.3814018 69.8344283,40.0310725 L69.8344283,40.0310725 Z M35.4769679,32.9434237 C36.0772754,32.9848056 36.6627321,33.0964802 37.2316248,33.2665429 L36.3565811,34.7971077 C36.1555266,34.3753521 35.8408079,34.0664048 35.3947184,33.9377239 L35.4769679,32.9434237 L35.4769679,32.9434237 Z M35.0685761,36.6870719 C35.3810102,36.6870719 35.6700259,36.6247155 35.9133474,36.5198435 C35.9167745,36.5770979 35.9230575,36.6332186 35.9230575,36.6927406 C35.9230575,37.590672 35.5409398,38.3179737 35.0685761,38.3179737 C34.5973548,38.3179737 34.2129525,37.590672 34.2129525,36.6927406 C34.2129525,36.6332186 34.2186642,36.5770979 34.2220913,36.5192766 C34.4654129,36.6247155 34.7555709,36.6870719 35.0685761,36.6870719 L35.0685761,36.6870719 Z M24.5926122,46.4832536 C24.5926122,39.2669239 28.9152825,33.3510074 34.3437521,32.9485256 C34.3968716,33.3362687 34.4477064,33.7132411 34.4825482,33.9802396 C33.8039895,34.2852188 33.4218718,35.2046915 33.4218718,36.2086286 C33.4218718,37.92853 33.8302636,38.6796405 33.8302636,38.6796405 L32.2852289,41.047481 C32.0544732,41.5117523 30.9680939,43.5893523 30.5419956,43.9895667 C30.1416003,44.3648385 28.044237,46.8029716 27.7386571,47.6402472 C27.7369436,47.6442153 27.7295183,47.6498841 27.7283759,47.6544191 C27.7243777,47.668591 27.7238065,47.6918329 27.7203795,47.7088392 C27.7146677,47.732648 27.7038153,47.759858 27.7021018,47.7796987 C27.7003882,47.7955712 27.7061,47.8074756 27.7061,47.8227812 C27.6923918,48.1612061 27.8014866,48.7745658 27.9642722,49.4893963 L25.9074625,53.089058 C25.0712589,51.1333363 24.5926122,48.8800047 24.5926122,46.4832536 L24.5926122,46.4832536 Z M33.0329,43.8291408 C33.200255,44.2406927 33.451573,44.4555386 33.4612831,44.5751494 C33.473849,44.6947602 33.3978824,44.9481538 33.119719,45.1590316 C33.0500354,45.2106173 32.1378651,45.5564115 31.0840429,45.9793009 L32.7844379,43.0032027 C32.8855363,43.3739395 32.9774958,43.6908231 33.0329,43.8291408 L33.0329,43.8291408 Z M26.4135257,54.1547846 L28.3001245,50.8527327 C28.4863283,51.5658625 28.6816709,52.2755911 28.8358888,52.8526707 C28.1064953,53.4155785 27.4239384,54.0827913 26.8007839,54.842405 C26.6671284,54.618489 26.5369,54.3900381 26.4135257,54.1547846 L26.4135257,54.1547846 Z M27.4479279,55.8219665 C27.9739822,55.1422823 28.5503002,54.5391264 29.1654582,54.020435 C29.4493333,54.8707488 29.8051768,55.5770761 29.8051768,55.5770761 C29.8051768,55.5770761 28.6171279,56.1377163 29.319676,56.5634401 C30.021653,56.9902976 31.5152818,56.6745478 31.5152818,56.6745478 C31.5152818,56.6745478 32.2086911,57.2011754 32.6901936,57.5401672 C33.2042532,57.9012671 33.9484973,58.3967166 33.9484973,58.3967166 C33.9484973,58.3967166 33.8948067,59.3161893 34.0758699,59.9913384 C31.4764417,59.7096011 29.1477517,58.1631638 27.4479279,55.8219665 L27.4479279,55.8219665 Z M35.0828556,50.5647598 C34.8823723,51.6956771 34.678462,53.3679609 34.8698064,55.3146126 C34.9697625,56.3366898 35.203374,57.5327978 34.8606676,57.4324608 C34.5162476,57.3332575 32.005352,55.6207256 31.6592185,54.7636093 C31.5135683,54.4025093 31.4621623,53.7148889 31.4347458,52.9921222 C31.4604488,52.6344235 31.8534188,51.5114424 32.2412482,51.1611132 C32.6353606,50.8062489 33.5001231,50.6713324 33.7006064,50.0630746 C33.8011336,49.7586623 32.6839107,49.9496995 32.0424785,49.801178 C31.0771888,49.5789626 30.1758709,49.0381631 29.6726637,48.5704905 C29.4887445,48.3414726 29.3722244,48.152703 29.4013544,48.0461303 C29.6075494,47.2791473 32.2972236,46.4345023 32.7090425,46.2961845 C33.6931811,45.969664 34.5322406,45.7956332 35.2267923,45.6845255 C35.4501226,45.6505129 35.4078555,45.0394208 34.8698064,45.0003063 C34.7144462,44.9901026 34.481977,44.586487 34.5179612,44.2905778 C34.5585148,43.9629235 35.425562,44.051923 35.8853598,43.9629235 C36.4382594,43.8569177 36.626748,43.307615 36.6130397,42.9895977 C36.575342,42.2124109 35.9230575,43.0496865 34.472267,42.9895977 C33.3618982,42.9453813 33.2528033,42.3819067 33.3493323,42.0928 C33.4475748,41.8059609 33.7228823,40.9273033 34.0204657,40.4573632 C34.5236729,39.6631701 34.6344813,39.5378906 35.8647974,39.5741706 C36.8517918,39.6030813 38.2586017,40.8643801 38.9434433,41.714127 C38.7006929,41.8932597 38.4630832,42.1030038 38.2311852,42.3450598 C37.9655877,42.1931371 37.7034173,42.0276093 37.6114577,42.0242081 C37.3532856,42.0162718 37.3704209,42.636434 37.4303945,43.3416276 C36.4171259,44.8211736 35.6071964,46.9084105 35.2319329,49.2921235 C35.1645339,49.7223822 35.1188397,50.1458385 35.0828556,50.5647598 L35.0828556,50.5647598 Z M39.885886,44.0950056 C39.9338649,44.3353609 40.0132585,44.5796844 40.146914,44.833078 C40.1651917,44.8670905 40.1903235,44.9005362 40.21774,44.9305806 C40.3828103,45.0961083 40.6506924,45.1000765 40.8174762,44.93795 C41.0248136,44.7367091 41.1733197,44.5275319 41.2944093,44.3138197 C41.4194972,44.1012412 41.5143126,43.8835609 41.5937063,43.6630462 C41.6639611,43.4544359 41.7159382,43.2424243 41.7536359,43.0287121 C41.8553055,43.143221 41.9501209,43.2775706 42.0409381,43.4260921 C42.0238028,43.645473 42.0420805,43.8790259 42.1094794,44.11598 C42.2128625,44.4895512 42.4104899,44.7984985 42.6498132,45.0161789 C42.6863685,45.175471 42.7183545,45.3438331 42.7486269,45.5144627 C42.6315355,45.4526733 42.5093036,45.4050557 42.3756481,45.3840813 C41.4823267,45.2446298 40.5958594,46.1521981 40.3988032,47.408395 L41.7336447,46.946958 C41.2812722,47.6221072 40.7991986,48.2728807 40.2959913,48.9066479 C40.2520106,48.764362 40.2006047,48.6198087 40.1286363,48.4718541 C40.1137857,48.4474784 40.0966504,48.4214021 40.0743745,48.4015615 C39.9732761,48.3057595 39.8156311,48.308027 39.718531,48.4094977 C39.6048667,48.526841 39.5106224,48.6487194 39.4249458,48.7717314 C39.1404995,48.015519 38.8800426,47.2502366 38.6567123,46.4696486 L39.7876435,47.3137267 C39.9846996,46.0569629 39.4203764,44.9249118 38.5259127,44.7865941 C38.3933995,44.7656197 38.2614576,44.7758235 38.1318003,44.7984985 C38.6487158,43.8138352 39.2398844,43.0916353 39.8413341,42.7339366 C39.8110617,42.9487826 39.799067,43.1664629 39.8013517,43.385277 C39.8076347,43.6188299 39.8304818,43.8546502 39.885886,44.0950056 L39.885886,44.0950056 Z M43.386632,44.4634749 C43.1233192,44.536035 42.8297341,44.3041828 42.729778,43.9442166 C42.6303932,43.5865179 42.7623351,43.239023 43.0245055,43.1664629 C43.2861048,43.0933359 43.5819746,43.3263219 43.679646,43.6851543 C43.779602,44.042853 43.6493736,44.3914817 43.386632,44.4634749 L43.386632,44.4634749 Z M37.779955,47.3097586 C38.1934875,48.1379642 38.5607545,48.9871442 38.9051744,49.8442605 C38.8486279,50.0250939 38.8023625,50.2064942 38.765236,50.3890282 C38.7389618,50.5250785 38.7241112,50.6628293 38.7115453,50.8000132 C38.3671254,51.1837882 38.0169937,51.563595 37.6560096,51.9343318 C37.2721784,52.3175399 36.8729254,52.6877099 36.4599642,53.0465423 C36.4034176,51.9717456 36.4633912,50.7694019 36.6610186,49.5126382 C36.7101399,49.1997227 36.7684,48.8953104 36.8312295,48.5942993 C37.0608428,48.9950805 37.3972662,49.2751172 37.8085139,49.339741 L37.779955,47.3097586 L37.779955,47.3097586 Z M35.5392263,60.016281 C35.9276269,59.3745775 36.137249,58.5049899 36.137249,58.5049899 C36.137249,58.5049899 36.3485846,58.2669021 36.6518798,57.9126047 C37.1145334,58.4494361 37.6617213,58.792396 38.2791641,58.8876311 C38.572178,58.9324143 38.8674767,58.9165418 39.1616331,58.8513511 C38.043839,59.5111946 36.823233,59.9187783 35.5392263,60.016281 L35.5392263,60.016281 Z M38.5019232,57.4710084 C37.7176967,57.3485632 37.1231011,56.49088 36.77811,55.1933012 C36.9643138,55.1054354 37.1242434,54.9603152 37.222486,54.7619086 C37.5966071,54.0079637 38.0426966,53.3107064 38.5070638,52.6281879 C38.6161587,52.4705964 38.7315365,52.3186737 38.8429161,52.1627828 C38.8846121,52.2914636 38.9337333,52.4218451 39.0022746,52.5550609 C39.0171252,52.5839716 39.0388299,52.614016 39.0645329,52.6389585 C39.1947614,52.7676394 39.4055258,52.7676394 39.5363254,52.6378248 C39.6419932,52.531819 39.7293834,52.4235457 39.8082058,52.3141387 C39.8664659,52.4949721 39.9281531,52.6752386 39.9846996,52.8577726 C40.2165977,53.6474307 40.4285045,54.4455919 40.5530211,55.2788994 C40.5724411,55.4155165 40.626703,55.5561017 40.7118084,55.6774131 C40.7506485,55.7324001 40.7946291,55.7817183 40.8420369,55.8253677 C40.1137857,56.9557182 39.2844362,57.5923198 38.5019232,57.4710084 L38.5019232,57.4710084 Z M42.7012192,50.4491171 C42.5024494,51.7109828 42.1883019,52.878747 41.802186,53.8872192 C41.5165973,53.417846 41.2555693,52.938269 41.0076783,52.4564245 C40.7774938,51.9927201 40.5610176,51.5250475 40.3513955,51.0545405 C40.3816679,50.9184903 40.4096556,50.7835738 40.4262197,50.6463899 C40.4479245,50.4598877 40.459348,50.2733856 40.4604904,50.0846159 C41.0528013,49.3731867 41.6628187,48.6770632 42.311105,48.0126846 L41.6616764,49.9355276 C42.0723529,49.9995845 42.4796023,49.8346237 42.8211664,49.5222751 C42.7886093,49.8272543 42.7509116,50.1367685 42.7012192,50.4491171 L42.7012192,50.4491171 Z M43.0667727,54.842405 C43.0347867,54.8021568 43.0022296,54.7619086 42.9691013,54.7233611 C43.4877304,53.5380236 43.8944086,52.1633497 44.1291625,50.6701987 C44.4541625,48.6011018 44.3976159,46.6470807 44.0434859,45.042822 C44.3524929,44.7015628 44.4695842,44.1148462 44.3016581,43.513391 C44.0846107,42.7362041 43.4745933,42.2248821 42.8999889,42.3025441 C42.3990663,41.6239937 41.7879066,41.184098 41.0825025,41.0741241 C40.6866766,41.0123347 40.2874236,41.0667547 39.8921689,41.2039387 C39.5643131,40.8808195 39.1793396,40.5010126 38.7732325,40.0934289 C38.0118531,39.330414 36.282328,38.7283918 36.282328,38.7283918 C36.282328,38.7283918 36.6478815,37.5430544 36.6513086,36.2987619 C36.6513086,36.2789212 36.6484527,36.2596475 36.6484527,36.2398068 L38.1552186,33.6015666 C42.2842597,35.3815568 45.2755155,40.4817389 45.2755155,46.4832536 C45.2755155,49.6356502 44.4478795,52.5369209 43.0667727,54.842405 L43.0667727,54.842405 Z M56.1535882,43.6692818 C56.1553018,43.6681481 56.098184,43.6675812 56.0559169,43.6670143 C56.1004688,43.6664474 56.1632983,43.6658806 56.1644406,43.6653137 L56.1638694,43.6692818 L56.1535882,43.6692818 L56.1535882,43.6692818 Z" id="Fill-16"></path>
                            <path d="M54.9661105,17.2369943 C55.3619364,17.5686166 55.7292035,17.9019396 56.0393528,18.2176895 C56.2209872,18.4019241 56.5516989,18.8712974 56.7681751,19.1808116 C57.1531486,19.2142572 57.6409341,19.2261616 58.2149673,19.119589 C59.4875505,18.8837686 60.3774448,18.0368561 59.7582885,17.060129 C58.7255999,15.5890861 56.5465583,14.0375469 55.0312247,13.2535576 C54.4172091,13.0290747 54.5085975,13.6067212 54.7650561,14.772218 C54.8981404,15.3787752 54.9878153,16.2347577 54.9661105,17.2369943" id="Fill-17"></path>
                            <path d="M60.0952832,19.521504 C60.1826733,19.3395368 60.2415046,19.1876141 60.2883411,19.0475957 C59.0334645,20.3876903 56.8458552,20.2420032 55.8148801,20.137698 C56.1176041,21.1002532 56.8618482,22.1092923 57.7563119,22.4993029 C59.0049056,21.9477326 59.5875065,20.5690906 60.0952832,19.521504" id="Fill-18"></path>
                            <path d="M55.2065762,21.2561441 C55.0906272,20.9999162 55.0026659,20.7794015 54.9415499,20.58553 C54.6182635,21.3519461 53.8271829,23.1897576 53.2925609,24.1285041 C53.8608823,25.1188362 54.1767434,29.2661 54.3977891,29.3885452 C54.7804779,29.5999899 57.7877267,26.1205058 58.5605296,24.0349696 C58.0042029,23.7129841 57.4130343,23.3700242 56.87727,22.9970199 C56.2952402,22.6455568 55.5115849,21.9318601 55.2065762,21.2561441" id="Fill-19"></path>
                            <path d="M50.9393102,22.2419412 C51.4036774,22.3757239 51.8166386,22.768002 52.1010849,23.1052931 C52.1090814,23.0945225 52.117649,23.0826181 52.1267879,23.0718475 C52.6574116,22.4227746 53.0823676,21.7158804 53.3696698,20.9664705 C53.8111899,19.8151457 53.9991073,19.0526976 54.1356186,18.288549 C54.1790281,16.5799851 54.0607944,15.7325057 53.920856,14.9768602 C53.7843446,14.2399216 53.0955047,13.0755586 53.647262,12.7359999 C53.6529738,12.7331655 53.6564008,12.7303312 53.6615414,12.7269299 C52.3181323,12.5024471 51.3117178,13.6815489 51.012992,14.214979 C50.790804,14.8266381 51.4345209,15.6219649 51.4345209,16.8997031 C51.4345209,17.9954741 51.2151888,19.35711 50.1276671,20.63995 C50.5423419,21.0520688 50.8079394,21.7022754 50.9393102,22.2419412" id="Fill-20"></path>
                            <path d="M50.3350045,24.2894968 C50.8764807,24.6007117 51.3882556,25.4515923 50.6959886,25.7565715 C49.8666391,26.1210727 49.2097851,25.4283504 47.8446712,25.4963755 C46.6480547,25.5558975 44.9870709,26.3415874 44.1759991,26.8693488 C44.1034596,26.9163995 44.0589077,26.9368071 44.0263506,26.9453102 C42.179163,28.1805327 42.4230558,28.2173796 42.6480997,29.5574742 C42.8148834,30.5551757 43.5779764,31.2586686 43.8509992,31.4831515 C43.8852698,31.5103615 43.9218252,31.5398391 43.9555246,31.5664822 C44.6249445,32.1044474 45.5262624,32.1452625 45.8255593,32.1446956 C47.2500756,32.1407275 48.0525798,31.3159231 47.946912,31.1764716 C47.8806554,31.0891727 47.7732741,31.1912104 47.4471318,31.2354267 C46.9319298,31.3040187 46.2236699,31.3187575 45.8815347,31.1622997 C44.3884771,30.4786474 43.2107094,29.1238141 43.3734949,28.5319957 C43.537994,27.9413111 45.019628,27.6522044 46.2567982,27.357429 C47.5310949,27.0535835 48.1999436,26.7973556 49.908335,27.2434869 C50.883906,27.4974473 51.180347,29.170298 51.4550833,29.2695012 C51.5778864,29.3142844 52.1719109,28.686186 52.542605,27.051316 C52.7853554,25.9867231 52.5488879,25.0292698 51.9411552,24.2418792 C51.8429127,24.1143322 51.7281061,23.9947214 51.6104436,23.8762443 C51.2751624,23.6075452 50.9410237,23.4187755 50.3629922,23.5230807 C50.3201539,23.53045 50.2756021,23.5423544 50.2316214,23.5519913 C49.7272718,23.6863409 49.9911557,24.0910903 50.3350045,24.2894968" id="Fill-21"></path>
                            <path d="M52.6528422,30.5222969 C51.9600041,30.5846532 51.2791607,30.544405 50.7256898,30.3295591 C50.4418147,30.2371583 50.1967796,30.0778662 49.9591698,29.9106378 C49.9037656,29.8658546 49.837509,29.8182371 49.7935284,29.7740208 L49.7198465,29.7076963 L49.6233175,29.6107605 C49.5147938,29.4996528 49.3177376,29.3205201 49.1549521,29.2031768 C48.4586869,28.6895872 47.6533268,28.4424294 46.8696715,28.3585317 C46.0848738,28.2791691 45.2863679,28.3381242 44.5604014,28.622129 C44.4924313,28.649339 44.4404542,28.7145298 44.4353136,28.7916249 C44.4290307,28.8993313 44.5112802,28.9928658 44.6203751,28.9996683 C45.3389162,29.0506872 46.0231867,29.1719986 46.6726153,29.361902 C47.3186169,29.5552067 47.9223514,29.8199377 48.3952862,30.1872733 C48.5238011,30.288744 48.5900577,30.3613041 48.7408485,30.5064244 L48.8408046,30.599392 L48.9738889,30.7116334 C49.0641349,30.7898623 49.1492403,30.845983 49.238344,30.9111737 C49.5964722,31.1634335 50.0214281,31.3227256 50.4463841,31.4071901 C51.3117178,31.5523103 52.1616297,31.357305 52.8167701,30.8692249 C52.8687473,30.8295436 52.8995908,30.7649198 52.8933079,30.6957609 C52.8841691,30.5891882 52.7882113,30.5103925 52.6802587,30.5200294 L52.6528422,30.5222969" id="Fill-22"></path>
                            <path d="M46.297923,19.0833089 C46.4738456,19.4194663 48.7208573,19.8928077 49.2651893,19.0697039 C49.3211647,18.982405 49.3742842,18.8934055 49.4262613,18.8021385 C49.6495917,18.4092935 49.8289414,17.9881048 49.8660679,17.6048967 C50.0328517,15.8798934 49.0013054,15.032414 47.8520965,14.8090649 C47.8646625,14.8175681 47.8732301,14.8243706 47.8732301,14.8243706 C47.8732301,14.8243706 46.8148385,14.7393392 47.0010423,16.3050503 C47.2129491,18.0856074 46.1214292,18.744884 46.297923,19.0833089" id="Fill-23"></path>
                            <path d="M39.2810091,18.1950145 C39.3935311,18.6292414 39.6762639,19.0872771 39.9846996,19.4874914 C40.6061406,20.2527738 42.7948922,19.5827266 42.9388289,19.2323973 C43.083908,18.8803674 41.937555,18.3208609 41.9866763,16.5278326 C42.0306569,14.9530514 40.9831177,15.1304836 40.9831177,15.1304836 C40.9831177,15.1304836 40.9911141,15.1231142 40.9996818,15.1157448 C39.8773183,15.4416984 38.9297351,16.3764767 39.2513079,18.078238 C39.258162,18.1162187 39.2712991,18.1559 39.2810091,18.1950145" id="Fill-24"></path>
                            <path d="M43.0759115,17.1973129 C43.4711662,18.2896827 44.1611485,19.1768434 44.6175192,19.1564359 L44.6180904,19.1564359 C45.0761746,19.1360284 45.682765,18.1899126 45.9763501,17.0674984 C46.2516576,16.0176443 46.0643114,15.1406873 45.6016578,14.7688168 C45.3709021,14.5970534 45.0990217,14.4740413 44.7991536,14.4241562 C45.1807001,14.2404885 45.438301,13.8238347 45.4165963,13.3482259 C45.3886086,12.7257962 44.8911131,12.2416842 44.3062275,12.2677605 C43.7219131,12.2938368 43.2689694,12.8198976 43.2975283,13.4428941 C43.3198042,13.9179361 43.6133894,14.3102142 44.0103577,14.4593025 C43.7173437,14.534697 43.4591715,14.6803841 43.2455512,14.8708544 C42.8148834,15.2818394 42.7075021,16.1735351 43.0759115,17.1973129" id="Fill-25"></path>
                            <path d="M38.7835137,68.5863102 C38.987424,68.692316 39.1884784,68.7580736 39.3861058,68.8243981 C39.7819317,68.9304038 40.1720458,69.0040977 40.5570194,69.0324415 C41.3172564,69.0936641 42.1009117,69.0375434 42.7954634,68.9133976 C43.4397515,68.7994555 43.9989341,68.7325642 44.5501203,68.7490036 C45.087027,68.760908 45.6359284,68.8737163 46.1716928,69.2336824 L46.2585117,69.2920706 C46.3070618,69.3249494 46.3670354,69.3425226 46.4304361,69.3385545 C46.5817981,69.3277838 46.6960336,69.199103 46.6851812,69.0488809 C46.6206382,68.0902938 45.827844,67.3629921 44.9870709,67.0398729 C44.1394437,66.7122186 43.2307006,66.7065499 42.4653229,66.8374982 C41.7450683,66.9588096 41.1047784,67.1005286 40.4319315,67.2637888 L39.4506488,67.5137811 C39.1370724,67.6033475 38.7972219,67.6708057 38.6150163,67.7025507 L38.3648407,67.7473339 C38.3477053,67.7501683 38.3294277,67.7564039 38.3128635,67.7637733 C38.2003416,67.8147922 38.150078,67.9468742 38.2014839,68.0585488 C38.3334259,68.3465217 38.5961675,68.4803044 38.7835137,68.5863102" id="Fill-26"></path>
                            <path d="M48.0548645,70.9382781 C47.6750316,70.7075597 47.2980545,70.600987 46.958204,70.5199238 C46.2773606,70.3640329 45.6844785,70.3351222 45.1150147,70.3050778 L43.4757356,70.2517915 C42.9468254,70.2330846 42.4247693,70.2075752 41.9129944,70.1616582 C41.4023618,70.1117731 40.8437504,70.0550856 40.3291196,69.989328 C39.8082058,69.9230035 39.2992868,69.8532777 38.836062,69.7200619 C38.3705524,69.5755086 37.9712995,69.4196177 37.6223101,69.0137346 C37.5560535,68.9360726 37.448101,68.897525 37.341862,68.9241682 C37.1916424,68.961582 37.1008252,69.112371 37.1385229,69.2614594 L37.1402364,69.2688287 L37.1916424,69.4746047 C37.2179165,69.5488654 37.2573278,69.6316293 37.2933119,69.7115588 C37.3687074,69.8634815 37.4526704,70.0052005 37.5583382,70.1333144 C37.7651044,70.3923767 38.0072836,70.6219614 38.269454,70.8039286 C38.7920813,71.1695635 39.3444098,71.4303264 39.8904554,71.642338 C40.4462109,71.8537827 40.9688382,72.0295142 41.5434426,72.1814369 C42.1197606,72.331659 42.6955074,72.4387985 43.2666847,72.5209955 C44.3907618,72.6853895 45.5582483,72.7364084 46.3744607,72.925178 C46.5715169,72.9722287 46.7245924,73.0419545 46.826262,73.080502 C46.9359281,73.1184827 46.9856205,73.1252852 47.0947154,73.1558965 C47.1986697,73.1882084 47.3426063,73.2891123 47.5042495,73.4637101 C47.6738892,73.637741 47.8326765,73.8718607 48.0714287,74.1433943 L48.0857081,74.1604005 C48.0931334,74.1677699 48.0999875,74.1757062 48.107984,74.1836424 C48.2519207,74.3196926 48.4798205,74.3157245 48.6174742,74.1734387 C48.8836429,73.897937 49.0350049,73.5799196 49.1201103,73.2114503 C49.1949345,72.8458154 49.1726586,72.4127223 48.9813142,71.9790622 C48.7991086,71.5431347 48.426701,71.1684297 48.0548645,70.9382781" id="Fill-27"></path>
                            <path d="M39.2267473,53.6485644 C39.2256049,53.6462969 39.2244626,53.6440294 39.2233202,53.6428957 C39.1673448,53.5697687 39.0611059,53.554463 38.9862816,53.6105838 C38.7212553,53.8067228 38.559041,54.0193012 38.4116772,54.2369816 C38.2780217,54.4535282 38.1677845,54.6751766 38.1020991,54.9030607 C38.034129,55.1298111 37.9775824,55.3605295 38.0192784,55.6042862 C38.0649726,55.8503103 38.1620727,56.1048375 38.4379514,56.3854411 C38.5556139,56.504485 38.7401042,56.5373638 38.8948932,56.4551668 C39.2444538,56.2726328 39.415807,56.0606212 39.5334695,55.8395396 C39.6494185,55.6190249 39.6659827,55.3826377 39.6716945,55.1468173 C39.6779774,54.9087295 39.6414221,54.6649729 39.5814484,54.4189487 C39.5089089,54.1678227 39.4180917,53.915563 39.2267473,53.6485644" id="Fill-28"></path>
                        </g>
                    </g>
                </g>
            </g>
        </g>
    </g>
</svg>