<?xml version="1.0" encoding="UTF-8" standalone="no"?>
<svg width="206px" height="64px" viewBox="0 0 206 64" version="1.1" xmlns="http://www.w3.org/2000/svg" xmlns:xlink="http://www.w3.org/1999/xlink" xmlns:sketch="http://www.bohemiancoding.com/sketch/ns">
    <!-- Generator: Sketch 3.3 (11970) - http://www.bohemiancoding.com/sketch -->
    <title>лого</title>
    <desc>Created with Sketch.</desc>
    <defs></defs>
    <g id="Главная-стр" stroke="none" stroke-width="1" fill="none" fill-rule="evenodd" sketch:type="MSPage">
        <g id="1-главная" sketch:type="MSArtboardGroup" transform="translate(-142.000000, -7.000000)" fill="#FFFFFF">
            <g id="ШАПКА" sketch:type="MSLayerGroup">
                <g id="лого" transform="translate(142.000000, 7.000000)" sketch:type="MSShapeGroup">
                    <path d="M18.674368,56.9536273 C24.8719748,56.9536273 30.8249393,58.4284495 35.9624291,61.1322902 L34.4945749,63.3445235 C29.7648223,60.8864865 24.3011426,59.4935989 18.5928205,59.4935989 C12.6398561,59.4935989 7.09462888,60.9684211 2.20178138,63.5903272 L0.815474584,61.3780939 C6.11605938,58.5103841 12.1505713,56.9536273 18.674368,56.9536273 L18.674368,56.9536273 Z" id="Shape"></path>
                    <path d="M34.9838596,38.9280228 L12.5583086,38.9280228 L3.01725596,3.36842105 L0.407737292,3.36842105 L10.682717,41.4679943 L35.7177868,41.5499289 L35.0654071,39.0918919 L34.9838596,38.9280228 Z" id="Shape"></path>
                    <path d="M30.7433918,34.9951636 L16.0648493,34.9951636 L9.78569501,11.7257468 L7.17617634,11.7257468 L14.1077103,37.6170697 L31.3957715,37.6170697 L30.7433918,34.9951636 Z" id="Shape"></path>
                    <path d="M26.502924,30.9803698 L19.3267476,30.9803698 L16.717229,21.2301565 L14.1077103,21.2301565 L17.3696086,33.5203414 L27.1553036,33.5203414 L26.502924,30.9803698 Z" id="Shape"></path>
                    <path d="M74.7271255,63.0736842 L70.8072874,63.0736842 L64.5522267,45.1368421 L70.8072874,27.2 L74.7271255,27.2 L68.4720648,45.1368421 L74.7271255,63.0736842 L74.7271255,63.0736842 Z M67.6380567,63.0736842 L61.382996,45.1368421 L67.6380567,27.2 L63.7182186,27.2 L57.4631579,45.1368421 L63.7182186,63.0736842 L67.6380567,63.0736842 L67.6380567,63.0736842 Z M95.9109312,63.0736842 L88.9052632,63.0736842 C85.48583,58.1052632 83.0672065,52.8 81.6493927,46.9894737 C80.5651822,42.6105263 79.9813765,37.9789474 79.9813765,33.0947368 C79.9813765,27.9578947 80.5651822,23.2421053 81.7327935,18.8631579 C83.1506073,13.5578947 85.5692308,8.42105263 88.8218623,3.28421053 L95.8275304,3.28421053 C91.9076923,7.57894737 88.988664,12.4631579 87.237247,17.7684211 C85.6526316,22.4842105 84.8186235,27.6210526 84.8186235,33.2631579 C84.8186235,39.0736842 85.6526316,44.2947368 87.237247,48.9263158 C89.0720648,53.8947368 91.9076923,58.6105263 95.9109312,63.0736842 L95.9109312,63.0736842 L95.9109312,63.0736842 Z M113.591903,9.85263158 L108.087449,9.85263158 L108.087449,63.0736842 L103.166802,63.0736842 L103.166802,9.85263158 L97.6623482,9.85263158 L97.6623482,3.28421053 L113.508502,3.28421053 L113.508502,9.85263158 L113.591903,9.85263158 L113.591903,9.85263158 Z M134.358704,63.0736842 L129.438057,63.0736842 L129.438057,23.4947368 L123.099595,37.8105263 L123.099595,63.1578947 L118.178947,63.1578947 L118.178947,3.2 L123.099595,3.2 L123.099595,25.6842105 L134.358704,0.168421053 L134.358704,63.0736842 L134.358704,63.0736842 Z M157.377328,63.0736842 L152.45668,63.0736842 L152.45668,13.5578947 C150.788664,15.6631579 149.37085,18.2736842 148.28664,21.3894737 C146.785425,25.6842105 146.034818,30.9052632 146.034818,36.9684211 L146.034818,63.0736842 L141.11417,63.0736842 L141.11417,36.9684211 C141.11417,33.5157895 141.364372,30.4842105 141.781377,27.7052632 C142.531984,22.6526316 143.949798,18.1052632 146.118219,13.8105263 C148.870445,8.33684211 152.540081,3.95789474 157.293927,0.673684211 L157.293927,63.0736842 L157.377328,63.0736842 L157.377328,63.0736842 Z M183.064777,54.9894737 C183.064777,57.6842105 182.397571,59.7052632 181.146559,61.0526316 C179.812146,62.4 178.14413,63.0736842 175.975709,63.0736842 L166.968421,63.0736842 L166.968421,50.6105263 L162.798381,50.6105263 L159.962753,44.4631579 L167.051822,44.4631579 L167.051822,3.28421053 L171.97247,3.28421053 L171.97247,44.4631579 L177.727126,44.4631579 C179.061538,44.4631579 180.22915,44.8842105 181.063158,45.6421053 C182.480972,46.9894737 183.231579,49.0947368 183.231579,51.9578947 L183.231579,54.9894737 L183.064777,54.9894737 L183.064777,54.9894737 Z M178.22753,54.1473684 L178.22753,52.8842105 C178.22753,51.8736842 178.060729,51.2842105 177.643725,51.0315789 C177.226721,50.7789474 176.809717,50.6105263 176.309312,50.6105263 L171.805668,50.6105263 L171.805668,56.5052632 L176.225911,56.5052632 C176.809717,56.5052632 177.226721,56.4210526 177.393522,56.2526316 C177.977328,55.9157895 178.22753,55.2421053 178.22753,54.1473684 L178.22753,54.1473684 L178.22753,54.1473684 Z M205.582996,45.1368421 L199.327935,63.0736842 L195.408097,63.0736842 L201.663158,45.1368421 L195.408097,27.2 L199.327935,27.2 L205.582996,45.1368421 L205.582996,45.1368421 Z M198.577328,45.1368421 L192.322267,27.2 L188.402429,27.2 L194.65749,45.1368421 L188.402429,63.0736842 L192.322267,63.0736842 L198.577328,45.1368421 L198.577328,45.1368421 Z M20.7130544,45.3189189 C19.0005578,45.3189189 17.5327036,46.7937411 17.5327036,48.514367 C17.5327036,50.3169275 18.9190103,51.7098151 20.7130544,51.7098151 C22.4255511,51.7098151 23.8934053,50.2349929 23.8934053,48.514367 C23.8934053,46.7937411 22.4255511,45.3189189 20.7130544,45.3189189 L20.7130544,45.3189189 Z M20.7130544,42.6150782 C23.9749528,42.6150782 26.5844714,45.2369844 26.5844714,48.514367 C26.5844714,51.7917496 23.9749528,54.4136558 20.7130544,54.4136558 C17.4511561,54.4136558 14.8416374,51.7917496 14.8416374,48.514367 C14.8416374,45.2369844 17.4511561,42.6150782 20.7130544,42.6150782 L20.7130544,42.6150782 L20.7130544,42.6150782 Z" id="Shape"></path>
                </g>
            </g>
        </g>
    </g>
</svg>