<?xml version="1.0" encoding="UTF-8" standalone="no"?>
<svg width="55px" height="60px" viewBox="0 0 55 60" version="1.1" xmlns="http://www.w3.org/2000/svg" xmlns:xlink="http://www.w3.org/1999/xlink" xmlns:sketch="http://www.bohemiancoding.com/sketch/ns">
    <!-- Generator: Sketch 3.3 (11970) - http://www.bohemiancoding.com/sketch -->
    <title>Imported Layers Copy</title>
    <desc>Created with Sketch.</desc>
    <defs></defs>
    <g id="Index" stroke="none" stroke-width="1" fill="none" fill-rule="evenodd" sketch:type="MSPage">
        <g id="Desktop-Index-1170" sketch:type="MSArtboardGroup" transform="translate(-197.000000, -10.000000)" fill="#1973BC">
            <g id="header" sketch:type="MSLayerGroup" transform="translate(0.000000, -13.000000)">
                <g id="logo-faculteta" transform="translate(192.000000, 17.000000)" sketch:type="MSShapeGroup">
                    <g id="Imported-Layers-Copy" transform="translate(35.772206, 34.388631) rotate(19.000000) translate(-35.772206, -34.388631) translate(7.772206, 8.388631)">
                        <path d="M29.0405983,35.0158414 C39.125088,24.2226729 44.7478965,10.9698907 45.4253931,3.71323655 L43.1196967,8.456432 C42.1689936,8.38187734 41.393529,9.01352103 40.6263434,10.5736464 C36.946336,18.0594872 28.4403721,35.4797371 2.24222423,36.7595922 C0.112456169,36.8638306 -0.126944387,40.7027056 2.89902345,40.6343638 C0.487770009,41.3792202 1.64544763,44.6230385 4.01944565,44.1881362 C1.97246741,44.5629805 2.25809228,48.3845975 5.95051815,47.891018 C7.21996202,47.721199 17.4665818,47.2642065 29.0405983,35.0158414" id="Fill-1"></path>
                        <path d="M27.6345512,30.5197808 C25.8180046,28.498521 17.9702198,16.986038 19.2486326,1.67057677 C19.4342198,-0.546734216 15.7473132,-0.0241612343 15.9846441,3.9845327 C14.3322973,2.61700683 12.375008,5.49012275 14.4509627,8.34805161 C12.3777677,7.15793824 11.0683087,11.1521354 13.7886441,13.0960793 C11.6554265,11.9045853 10.6357319,15.7917827 13.2201541,17.3332695 C11.2104312,17.0592121 10.9047988,20.8000614 13.7217224,21.7133561 C11.0324331,21.5918596 11.5726367,25.7158371 14.684154,25.7897015 C12.4095038,25.6178116 12.4688365,29.6126991 16.0087911,30.1594333 C13.5257865,30.361007 14.2550268,34.1129015 17.8694922,33.881644 C18.0102349,33.8726698 27.6345512,30.5197808 27.6345512,30.5197808" id="Fill-2"></path>
                        <path d="M28.5314409,31.1880116 C30.0561534,33.4370773 39.344481,43.8215758 54.5108857,46.252196 C56.7061957,46.6042597 55.3146369,50.0600065 51.4821582,48.8685125 C52.4128538,50.8014112 49.1564543,52.0129246 46.8811141,49.3110082 C47.5386032,51.6104674 43.3487485,51.9252538 42.1151803,48.8160481 C42.7602509,51.1734942 38.7435649,51.2321715 37.8680626,48.3521524 C37.6521192,50.3699606 33.9486547,49.7693814 33.7389205,46.8148076 C33.2111354,49.4559756 29.3400215,47.9421017 30.0147585,44.9019281 C29.6359951,47.1530649 25.7738501,46.1369124 26.091901,42.5672626 C25.3012582,44.9309216 21.8358144,43.3231641 22.9272602,39.8667269 C22.969345,39.7328046 28.5314409,31.1880116 28.5314409,31.1880116" id="Fill-3"></path>
                    </g>
                </g>
            </g>
        </g>
    </g>
</svg>