<?xml version="1.0" encoding="UTF-8" standalone="no"?>
<svg width="42px" height="42px" viewBox="0 0 42 42" version="1.1" xmlns="http://www.w3.org/2000/svg" xmlns:xlink="http://www.w3.org/1999/xlink" xmlns:sketch="http://www.bohemiancoding.com/sketch/ns">
    <!-- Generator: Sketch 3.3 (11970) - http://www.bohemiancoding.com/sketch -->
    <title>Shape + Shape Copy 2 + Oval 1</title>
    <desc>Created with Sketch.</desc>
    <defs></defs>
    <g id="Главная-стр" stroke="none" stroke-width="1" fill="none" fill-rule="evenodd" sketch:type="MSPage">
        <g id="1.2-Строка-поиска" sketch:type="MSArtboardGroup" transform="translate(-1145.000000, -18.000000)" fill="#FFFFFF">
            <g id="шапка--copy-4" sketch:type="MSLayerGroup">
                <g id="Shape-+-Shape-Copy-2-+-Oval-1" transform="translate(1145.000000, 18.000000)" sketch:type="MSShapeGroup">
                    <g id="Shape-+-Shape-Copy-2" transform="translate(9.118421, 6.078947)">
                        <path d="M10.9526354,27.8944254 C9.51372298,28.8879601 8.31462932,29.4361172 7.25257494,29.6416762 C6.87571694,29.7101958 6.53311875,29.7444556 6.19052056,29.7444556 C4.95716708,29.7444556 3.8951127,29.299078 2.86731814,28.6138816 C2.86731814,28.6138816 1.25710666,27.5518272 0.674689737,26.832371 C0.126532637,26.078655 0.160792456,25.4277184 0.674689737,24.9138212 L4.4432698,20.4600447 C4.4432698,20.4600447 5.36828491,19.3637305 6.70441784,20.220226 C6.70441784,20.220226 7.28683476,20.7683831 8.62296769,21.727658 C9.92484081,22.6869329 11.2952336,20.4257849 11.2952336,20.4257849 L13.7276807,16.5201656 C13.7276807,16.5201656 14.3443574,15.5951505 15.0638136,14.4988363 C15.5091913,13.8478997 15.9545689,13.1284435 16.3656867,12.477507 C17.256442,10.6617366 16.7768046,10.0450598 16.7768046,10.0450598 C16.502726,9.39412326 14.7212154,8.84596616 13.8989798,8.29780906 C12.5971067,7.44131359 13.2480432,6.13944048 13.2480432,6.13944048 L15.8860493,0.931948024 C16.1943876,0.246751649 16.7425447,-0.0615867202 17.6675599,0.178232011 C18.592575,0.383790924 20.1685266,1.48010512 20.1685266,1.48010512 C20.4426052,1.65140422 20.6824239,1.82270331 20.9222426,2.02826223 C22.9093121,3.39865498 24.074146,5.31720483 23.1833907,9.59968217 C22.1898559,14.0191988 18.4555357,19.6720689 18.4555357,19.6720689 C18.4555357,19.6720689 14.7212154,25.2906792 10.9526354,27.8944254 Z" id="Shape" transform="translate(11.881579, 14.921053) scale(-1, -1) translate(-11.881579, -14.921053) "></path>
                    </g>
                    <path d="M21,39.8 L21,39.8 C31.2237778,39.8 39.5236842,31.3894282 39.5236842,21 C39.5236842,10.6105718 31.2237778,2.2 21,2.2 C10.7762222,2.2 2.47631579,10.6105718 2.47631579,21 C2.47631579,31.3894282 10.7762222,39.8 21,39.8 L21,39.8 Z M21,42 L21,42 C9.55462525,42 0.276315789,32.5979797 0.276315789,21 C0.276315789,9.40202025 9.55462525,0 21,0 C32.4453747,0 41.7236842,9.40202025 41.7236842,21 C41.7236842,32.5979797 32.4453747,42 21,42 L21,42 Z" id="Shape"></path>
                </g>
            </g>
        </g>
    </g>
</svg>